<svg width="24" height="24" viewBox="0 0 24 24" fill="none" xmlns="http://www.w3.org/2000/svg">
<path d="M6.51801 1.80518H1.03392C0.4629 1.80518 0 2.26808 0 2.8391L0.148508 16.8221C0.148508 17.4005 0.617321 17.8693 1.1957 17.8693H19.7354L8.12175 2.56228C7.72715 2.08296 7.13887 1.80518 6.51801 1.80518Z" fill="#1C86FF"/>
<path d="M19.001 17.2536H1.76172V4.5719C1.76172 3.76304 2.41745 3.10742 3.22632 3.10742H17.5364C18.3453 3.10742 19.001 3.76304 19.001 4.5719V17.2536Z" fill="#E7F1FC"/>
<path d="M15.1815 2.11343L12.6123 4.64466C12.343 4.88697 11.6667 5.65517 11.3044 5.65517H2.31429C1.24356 5.65517 0.375568 6.52305 0.375568 7.59378L0.148438 16.8557C0.148438 17.4268 0.611337 17.8897 1.18236 17.8897H19.77C20.3411 17.8897 20.804 17.4268 20.804 16.8557L21.0311 5.65517V2.83373C21.0311 2.26271 20.5682 1.7998 19.9972 1.7998H15.9984C15.6968 1.7998 15.4057 1.91155 15.1815 2.11343Z" fill="#78B5FC"/>
<path d="M23.9995 17.2302C23.9995 20.1522 21.6307 22.521 18.7087 22.521C15.7868 22.521 13.418 20.1522 13.418 17.2302C13.418 14.3083 15.7868 11.9395 18.7087 11.9395C21.6307 11.9395 23.9995 14.3083 23.9995 17.2302Z" fill="#458EE2"/>
<path d="M20.435 17.0372C20.435 17.0351 20.4354 17.033 20.4354 17.0309L20.4354 15.826C20.4354 14.9438 19.7177 14.2261 18.8355 14.2261C17.9533 14.2261 17.2356 14.9438 17.2356 15.826L17.2356 17.0309L17.2301 17.0309C16.9196 17.0309 16.668 17.2827 16.668 17.5932L16.668 19.708C16.668 20.0184 16.9196 20.2701 17.2301 20.2701L20.3503 20.2701C20.6608 20.2701 20.9126 20.0184 20.9126 19.708L20.9126 17.5932C20.9126 17.3115 20.7053 17.0781 20.435 17.0372ZM19.6493 17.0309L18.0216 17.0309L18.0216 15.826C18.0216 15.3772 18.3867 15.0122 18.8355 15.0122C19.2843 15.0122 19.6493 15.3772 19.6493 15.826L19.6493 17.0309ZM19.0017 18.5157L19.0017 19.1782C19.0017 19.2945 18.9073 19.3889 18.791 19.3889C18.6747 19.3889 18.5805 19.2945 18.5805 19.1782L18.5805 18.5157C18.4917 18.4507 18.4333 18.3463 18.4333 18.2278C18.4333 18.0301 18.5934 17.8699 18.791 17.8699C18.9887 17.8699 19.1489 18.0301 19.1489 18.2278C19.1489 18.3463 19.0905 18.4507 19.0017 18.5157Z" fill="white"/>
</svg>
