<svg width="24" height="24" viewBox="0 0 24 24" fill="none" xmlns="http://www.w3.org/2000/svg">
<path d="M3 12C3 11.4 3.4 11 4 11L20 11C20.6 11 21 11.4 21 12C21 12.6 20.6 13 20 13H4C3.4 13 3 12.6 3 12Z" fill="#5D5D5D" fill-opacity="0.6"/>
<path d="M14 17C14 16.7 14.1 16.5 14.3 16.3L19.3 11.3C19.7 10.9 20.3 10.9 20.7 11.3C21.1 11.7 21.1 12.3 20.7 12.7L15.7 17.7C15.3 18.1 14.7 18.1 14.3 17.7C14.1 17.5 14 17.3 14 17Z" fill="#5D5D5D" fill-opacity="0.6"/>
<path d="M14 7C14 6.7 14.1 6.5 14.3 6.3C14.7 5.9 15.3 5.9 15.7 6.3L20.7 11.3C21.1 11.7 21.1 12.3 20.7 12.7C20.3 13.1 19.7 13.1 19.3 12.7L14.3 7.7C14.1 7.5 14 7.3 14 7Z" fill="#5D5D5D" fill-opacity="0.6"/>
</svg>
