<svg width="290" height="177" viewBox="0 0 290 177" fill="none" xmlns="http://www.w3.org/2000/svg">
<g clip-path="url(#clip0_2838_1300)">
<mask id="path-1-outside-1_2838_1300" maskUnits="userSpaceOnUse" x="0" y="0" width="290" height="177" fill="black">
<rect fill="white" width="290" height="177"/>
<path d="M1 24C1 12.6863 1 7.02944 4.51472 3.51472C8.02944 0 13.6863 0 25 0H265C276.314 0 281.971 0 285.485 3.51472C289 7.02944 289 12.6863 289 24V152C289 163.314 289 168.971 285.485 172.485C281.971 176 276.314 176 265 176H25C13.6863 176 8.02944 176 4.51472 172.485C1 168.971 1 163.314 1 152V24Z"/>
</mask>
<path d="M1 24C1 12.6863 1 7.02944 4.51472 3.51472C8.02944 0 13.6863 0 25 0H265C276.314 0 281.971 0 285.485 3.51472C289 7.02944 289 12.6863 289 24V152C289 163.314 289 168.971 285.485 172.485C281.971 176 276.314 176 265 176H25C13.6863 176 8.02944 176 4.51472 172.485C1 168.971 1 163.314 1 152V24Z" fill="white"/>
<rect width="288" height="8" transform="translate(1)" fill="url(#paint0_linear_2838_1300)"/>
<g filter="url(#filter0_f_2838_1300)">
<circle cx="318" cy="-7" r="82" fill="url(#paint1_linear_2838_1300)"/>
</g>
</g>
<path d="M1 0H289H1ZM290 164C290 171.18 284.18 177 277 177H13C5.8203 177 0 171.18 0 164H2C2 170.075 6.92487 175 13 175H277C283.075 175 288 170.075 288 164H290ZM13 177C5.8203 177 0 171.18 0 164V13C0 5.8203 5.8203 0 13 0C6.92487 0 2 5.37258 2 12V164C2 170.075 6.92487 175 13 175V177ZM277 0C284.18 0 290 5.8203 290 13V164C290 171.18 284.18 177 277 177V175C283.075 175 288 170.075 288 164V12C288 5.37258 283.075 0 277 0Z" fill="#D7D7D7" mask="url(#path-1-outside-1_2838_1300)"/>
<defs>
<filter id="filter0_f_2838_1300" x="-4" y="-329" width="644" height="644" filterUnits="userSpaceOnUse" color-interpolation-filters="sRGB">
<feFlood flood-opacity="0" result="BackgroundImageFix"/>
<feBlend mode="normal" in="SourceGraphic" in2="BackgroundImageFix" result="shape"/>
<feGaussianBlur stdDeviation="120" result="effect1_foregroundBlur_2838_1300"/>
</filter>
<linearGradient id="paint0_linear_2838_1300" x1="0" y1="4" x2="288" y2="4" gradientUnits="userSpaceOnUse">
<stop stop-color="#BEA4FD"/>
<stop offset="1" stop-color="#786AFF"/>
</linearGradient>
<linearGradient id="paint1_linear_2838_1300" x1="307" y1="-29.5" x2="126" y2="142.5" gradientUnits="userSpaceOnUse">
<stop stop-color="#5A59FF"/>
<stop offset="1" stop-color="#2B2B8F"/>
</linearGradient>
<clipPath id="clip0_2838_1300">
<path d="M1 24C1 12.6863 1 7.02944 4.51472 3.51472C8.02944 0 13.6863 0 25 0H265C276.314 0 281.971 0 285.485 3.51472C289 7.02944 289 12.6863 289 24V152C289 163.314 289 168.971 285.485 172.485C281.971 176 276.314 176 265 176H25C13.6863 176 8.02944 176 4.51472 172.485C1 168.971 1 163.314 1 152V24Z" fill="white"/>
</clipPath>
</defs>
</svg>
