<svg width="18" height="19" viewBox="0 0 18 19" fill="none" xmlns="http://www.w3.org/2000/svg">
<path d="M13.3785 3.317C11.9473 2.95185 10.477 2.76146 9 2.75C7.52314 2.76149 6.05312 2.95188 4.62206 3.317C4.0473 3.46434 3.52179 3.76121 3.09894 4.17745C2.67608 4.59369 2.37095 5.11445 2.21456 5.68681C1.89959 6.74315 1.72243 7.83576 1.6875 8.9375C1.72257 10.0395 1.89991 11.1323 2.21512 12.1888C2.28581 12.4352 2.38392 12.6729 2.50763 12.8975H2.50088C2.51438 12.9245 2.53294 12.9487 2.54644 12.9751L2.583 13.037C3.82106 15.3269 7.5015 16.4328 8.65238 16.7287C8.69379 16.7392 8.73707 16.7401 8.77888 16.7312C8.82068 16.7223 8.85989 16.704 8.89348 16.6776C8.92707 16.6512 8.95415 16.6174 8.97261 16.5788C8.99108 16.5403 9.00045 16.498 9 16.4553V15.4006C9.00044 15.327 9.02984 15.2565 9.08184 15.2044C9.13384 15.1523 9.20426 15.1228 9.27787 15.1222C10.6614 15.0882 12.0367 14.8987 13.3779 14.5574C13.9527 14.4101 14.4782 14.1132 14.9011 13.697C15.3239 13.2808 15.629 12.76 15.7854 12.1876C16.1004 11.1315 16.2775 10.0391 16.3125 8.9375C16.2776 7.83594 16.1004 6.74352 15.7854 5.68738C15.6291 5.11505 15.3241 4.59431 14.9014 4.17807C14.4786 3.76183 13.9532 3.46437 13.3785 3.317ZM6.57675 9.34925C6.57675 9.441 6.5403 9.52899 6.47543 9.59386C6.41055 9.65874 6.32256 9.69519 6.23081 9.69519H4.84594C4.80046 9.69519 4.75543 9.68622 4.71342 9.6688C4.67142 9.65138 4.63325 9.62585 4.60112 9.59367C4.56899 9.56148 4.54352 9.52328 4.52617 9.48125C4.50882 9.43921 4.49993 9.39416 4.5 9.34869V7.96381C4.5 7.87206 4.53645 7.78407 4.60132 7.7192C4.6662 7.65432 4.75419 7.61788 4.84594 7.61788H6.23081C6.32256 7.61788 6.41055 7.65432 6.47543 7.7192C6.5403 7.78407 6.57675 7.87206 6.57675 7.96381V9.34925ZM10.0384 9.34925C10.0384 9.441 10.0019 9.52899 9.93705 9.59386C9.87218 9.65874 9.78419 9.69519 9.69244 9.69519H8.30756C8.21581 9.69519 8.12782 9.65874 8.06295 9.59386C7.99807 9.52899 7.96163 9.441 7.96163 9.34925V7.96438C7.96163 7.87263 7.99807 7.78464 8.06295 7.71976C8.12782 7.65488 8.21581 7.61844 8.30756 7.61844H9.69244C9.78419 7.61844 9.87218 7.65488 9.93705 7.71976C10.0019 7.78464 10.0384 7.87263 10.0384 7.96438V9.34925ZM13.5 9.34925C13.5 9.441 13.4636 9.52899 13.3987 9.59386C13.3338 9.65874 13.2458 9.69519 13.1541 9.69519H11.7692C11.6774 9.69519 11.5894 9.65874 11.5246 9.59386C11.4597 9.52899 11.4233 9.441 11.4233 9.34925V7.96438C11.4233 7.87263 11.4597 7.78464 11.5246 7.71976C11.5894 7.65488 11.6774 7.61844 11.7692 7.61844H13.1541C13.2458 7.61844 13.3338 7.65488 13.3987 7.71976C13.4636 7.78464 13.5 7.87263 13.5 7.96438V9.34925Z" fill="#33343C"/>
</svg>
