<svg width="20" height="20" viewBox="0 0 20 20" fill="none" xmlns="http://www.w3.org/2000/svg">
<path d="M15.5892 3H7.64154C7.26782 3.00142 6.9098 3.15051 6.64554 3.41477C6.38128 3.67904 6.23219 4.03705 6.23077 4.41077V6.23077H4.41077C4.03705 6.23219 3.67904 6.38128 3.41477 6.64554C3.15051 6.9098 3.00142 7.26782 3 7.64154V15.5892C3.00142 15.963 3.15051 16.321 3.41477 16.5852C3.67904 16.8495 4.03705 16.9986 4.41077 17H12.3585C12.7322 16.9986 13.0902 16.8495 13.3545 16.5852C13.6187 16.321 13.7678 15.963 13.7692 15.5892V13.7692H15.5892C15.963 13.7678 16.321 13.6187 16.5852 13.3545C16.8495 13.0902 16.9986 12.7322 17 12.3585V4.41077C16.9986 4.03705 16.8495 3.67904 16.5852 3.41477C16.321 3.15051 15.963 3.00142 15.5892 3ZM12.6923 15.5892C12.6923 15.6778 12.6571 15.7627 12.5945 15.8253C12.5319 15.8879 12.447 15.9231 12.3585 15.9231H4.41077C4.32223 15.9231 4.23731 15.8879 4.1747 15.8253C4.1121 15.7627 4.07692 15.6778 4.07692 15.5892V7.64154C4.07692 7.553 4.1121 7.46808 4.1747 7.40547C4.23731 7.34287 4.32223 7.30769 4.41077 7.30769H12.3585C12.447 7.30769 12.5319 7.34287 12.5945 7.40547C12.6571 7.46808 12.6923 7.553 12.6923 7.64154V15.5892ZM15.9231 12.3585C15.9231 12.447 15.8879 12.5319 15.8253 12.5945C15.7627 12.6571 15.6778 12.6923 15.5892 12.6923H13.7692V7.64154C13.7678 7.26782 13.6187 6.9098 13.3545 6.64554C13.0902 6.38128 12.7322 6.23219 12.3585 6.23077H7.30769V4.41077C7.30769 4.32223 7.34287 4.23731 7.40547 4.1747C7.46808 4.1121 7.553 4.07692 7.64154 4.07692H15.5892C15.6778 4.07692 15.7627 4.1121 15.8253 4.1747C15.8879 4.23731 15.9231 4.32223 15.9231 4.41077V12.3585Z" fill="#929292"/>
</svg>
