<svg width="16" height="17" viewBox="0 0 16 17" fill="none" xmlns="http://www.w3.org/2000/svg">
<g clip-path="url(#clip0_912_20300)">
<path d="M8 5.5V8.5L10.5 10" stroke="#16283F" stroke-linecap="round" stroke-linejoin="round"/>
<path d="M4.5 7H2V4.5" stroke="#16283F" stroke-linecap="round" stroke-linejoin="round"/>
<path d="M4.225 12.5C5.01123 13.2419 5.99865 13.7356 7.06389 13.9196C8.12914 14.1035 9.22496 13.9694 10.2144 13.5341C11.2039 13.0988 12.0432 12.3816 12.6274 11.472C13.2116 10.5625 13.5148 9.50092 13.4991 8.42003C13.4834 7.33914 13.1496 6.28684 12.5393 5.3946C11.929 4.50236 11.0693 3.80975 10.0676 3.40331C9.06588 2.99687 7.96664 2.89463 6.90718 3.10935C5.84771 3.32408 4.87502 3.84625 4.11062 4.61062C3.375 5.35562 2.7675 6.05812 2 7" stroke="#16283F" stroke-linecap="round" stroke-linejoin="round"/>
</g>
<defs>
<clipPath id="clip0_912_20300">
<rect width="16" height="16" fill="white" transform="translate(0 0.5)"/>
</clipPath>
</defs>
</svg>
