<svg width="17" height="17" viewBox="0 0 17 17" fill="none" xmlns="http://www.w3.org/2000/svg">
<rect x="1.26875" y="1.26875" width="15.4" height="15.4" rx="7.7" fill="#F7F5F4"/>
<rect x="1.26875" y="1.26875" width="15.4" height="15.4" rx="7.7" stroke="#C4C3BC" stroke-width="0.6"/>
<path d="M9.43411 8.96842L11.5341 6.86842C11.6674 6.73509 11.6674 6.53509 11.5341 6.40176C11.4008 6.26842 11.2008 6.26842 11.0674 6.40176L8.96745 8.50176L6.86745 6.40176C6.73411 6.26842 6.53411 6.26842 6.40078 6.40176C6.26745 6.53509 6.26745 6.73509 6.40078 6.86842L8.50078 8.96842L6.40078 11.0684C6.33411 11.1351 6.30078 11.2018 6.30078 11.3018C6.30078 11.5018 6.43411 11.6351 6.63411 11.6351C6.73411 11.6351 6.80078 11.6018 6.86745 11.5351L8.96745 9.43509L11.0674 11.5351C11.1341 11.6018 11.2008 11.6351 11.3008 11.6351C11.4008 11.6351 11.4674 11.6018 11.5341 11.5351C11.6674 11.4018 11.6674 11.2018 11.5341 11.0684L9.43411 8.96842Z" fill="#1874DC"/>
</svg>
