<svg width="20" height="20" viewBox="0 0 20 20" fill="none" xmlns="http://www.w3.org/2000/svg">
<g clip-path="url(#clip0_912_20326)">
<path fill-rule="evenodd" clip-rule="evenodd" d="M5.8761 3.42754C4.26234 4.59046 3.17664 6.34681 2.85784 8.31022C2.53905 10.2736 3.01327 12.2833 4.17619 13.897C5.33911 15.5108 7.09546 16.5965 9.05887 16.9153C11.0223 17.2341 13.0319 16.7599 14.6457 15.5969C16.1804 14.491 17.1726 12.9131 17.5678 11.2037C14.2336 12.6347 10.2382 11.6189 8.02878 8.55284C6.81711 6.87144 6.36091 4.87571 6.59279 2.96962C6.34552 3.10874 6.10625 3.26162 5.8761 3.42754ZM2.82403 14.8714C-0.135701 10.7643 0.794528 5.03512 4.9017 2.07538C5.72246 1.48392 6.60945 1.04709 7.52642 0.760184C7.67415 0.713914 7.83184 0.709706 7.98182 0.748033C8.13181 0.78636 8.26815 0.865705 8.37557 0.977175C8.48298 1.08864 8.55723 1.22783 8.58997 1.37913C8.62272 1.53043 8.61268 1.68786 8.56097 1.83377C8.11518 3.08929 8.08226 4.45441 8.46702 5.72995C8.85177 7.0055 9.63407 8.12472 10.6998 8.92431C11.7655 9.7239 13.0588 10.162 14.391 10.1747C15.7233 10.1875 17.0247 9.77413 18.1055 8.99504C18.2311 8.90489 18.3794 8.85143 18.5336 8.84063C18.6879 8.82984 18.8421 8.86213 18.9791 8.93391C19.116 9.00569 19.2303 9.11413 19.3092 9.24711C19.3881 9.3801 19.4285 9.5324 19.4259 9.68701C19.3712 12.469 18.054 15.1952 15.6201 16.9491C11.5129 19.9088 5.78377 18.9786 2.82403 14.8714Z" fill="#878787"/>
</g>
<defs>
<clipPath id="clip0_912_20326">
<rect width="20" height="20" fill="white"/>
</clipPath>
</defs>
</svg>
