<svg width="16" height="17" viewBox="0 0 16 17" fill="none" xmlns="http://www.w3.org/2000/svg">
<path d="M4.41927 2.33301C4.08002 2.33301 3.7441 2.39983 3.43067 2.52965C3.11725 2.65948 2.83246 2.84976 2.59258 3.08965C2.35269 3.32953 2.16241 3.61432 2.03258 3.92774C1.90276 4.24117 1.83594 4.57709 1.83594 4.91634C1.83594 5.25559 1.90276 5.59152 2.03258 5.90494C2.16241 6.21836 2.35269 6.50315 2.59258 6.74303C2.83246 6.98292 3.11725 7.17321 3.43067 7.30303C3.7441 7.43285 4.08002 7.49967 4.41927 7.49967C5.10441 7.49967 5.76149 7.2275 6.24596 6.74303C6.73043 6.25856 7.0026 5.60148 7.0026 4.91634C7.0026 4.2312 6.73043 3.57412 6.24596 3.08965C5.76149 2.60518 5.10441 2.33301 4.41927 2.33301ZM11.5859 2.33301C11.2467 2.33301 10.9108 2.39983 10.5973 2.52965C10.2839 2.65948 9.99913 2.84976 9.75924 3.08965C9.51936 3.32953 9.32907 3.61432 9.19925 3.92774C9.06942 4.24117 9.0026 4.57709 9.0026 4.91634C9.0026 5.25559 9.06942 5.59152 9.19925 5.90494C9.32907 6.21836 9.51936 6.50315 9.75924 6.74303C9.99913 6.98292 10.2839 7.17321 10.5973 7.30303C10.9108 7.43285 11.2467 7.49967 11.5859 7.49967C12.2711 7.49967 12.9282 7.2275 13.4126 6.74303C13.8971 6.25856 14.1693 5.60148 14.1693 4.91634C14.1693 4.2312 13.8971 3.57412 13.4126 3.08965C12.9282 2.60518 12.2711 2.33301 11.5859 2.33301ZM4.41927 9.49967C4.08002 9.49967 3.7441 9.56649 3.43067 9.69632C3.11725 9.82614 2.83246 10.0164 2.59258 10.2563C2.35269 10.4962 2.16241 10.781 2.03258 11.0944C1.90276 11.4078 1.83594 11.7438 1.83594 12.083C1.83594 12.4223 1.90276 12.7582 2.03258 13.0716C2.16241 13.385 2.35269 13.6698 2.59258 13.9097C2.83246 14.1496 3.11725 14.3399 3.43067 14.4697C3.7441 14.5995 4.08002 14.6663 4.41927 14.6663C5.10441 14.6663 5.76149 14.3942 6.24596 13.9097C6.73043 13.4252 7.0026 12.7681 7.0026 12.083C7.0026 11.3979 6.73043 10.7408 6.24596 10.2563C5.76149 9.77185 5.10441 9.49967 4.41927 9.49967ZM11.5859 9.49967C11.2467 9.49967 10.9108 9.56649 10.5973 9.69632C10.2839 9.82614 9.99913 10.0164 9.75924 10.2563C9.51936 10.4962 9.32907 10.781 9.19925 11.0944C9.06942 11.4078 9.0026 11.7438 9.0026 12.083C9.0026 12.4223 9.06942 12.7582 9.19925 13.0716C9.32907 13.385 9.51936 13.6698 9.75924 13.9097C9.99913 14.1496 10.2839 14.3399 10.5973 14.4697C10.9108 14.5995 11.2467 14.6663 11.5859 14.6663C12.2711 14.6663 12.9282 14.3942 13.4126 13.9097C13.8971 13.4252 14.1693 12.7681 14.1693 12.083C14.1693 11.3979 13.8971 10.7408 13.4126 10.2563C12.9282 9.77185 12.2711 9.49967 11.5859 9.49967Z" stroke="#16283F" stroke-linecap="round" stroke-linejoin="round"/>
</svg>
