<svg width="16" height="16" viewBox="0 0 16 16" fill="none" xmlns="http://www.w3.org/2000/svg">
<path d="M13.5288 7.54101C13.2803 7.54101 13.0788 7.74251 13.0788 7.99101V10.511C13.0788 11.25 12.4778 11.851 11.7388 11.851H7.75883C7.65783 11.851 7.55983 11.885 7.48083 11.947L4.97883 13.9205V12.3005C4.97883 12.052 4.77733 11.8505 4.52883 11.8505H2.78883C2.04983 11.8505 1.44883 11.2495 1.44883 10.5105V4.89601C1.44883 4.15701 2.04983 3.55601 2.78883 3.55601H8.64883C8.89733 3.55601 9.09883 3.35451 9.09883 3.10601C9.09883 2.85751 8.89733 2.65601 8.64883 2.65601H2.78883C1.55383 2.65601 0.548828 3.66101 0.548828 4.89601V10.511C0.548828 11.746 1.55383 12.751 2.78883 12.751H4.07883V13.921C4.07883 14.265 4.27183 14.5735 4.58183 14.725C4.70833 14.787 4.84333 14.8175 4.97783 14.8175C5.17433 14.8175 5.36833 14.7525 5.53133 14.625L7.91433 12.751H11.7383C12.9733 12.751 13.9783 11.746 13.9783 10.511V7.99101C13.9788 7.74201 13.7773 7.54101 13.5288 7.54101Z" fill="#16283F"/>
<path d="M10.0837 6.7555C10.0837 6.507 9.88217 6.3055 9.63367 6.3055H4.08867C3.84017 6.3055 3.63867 6.507 3.63867 6.7555C3.63867 7.004 3.84017 7.2055 4.08867 7.2055H9.63367C9.88217 7.2055 10.0837 7.004 10.0837 6.7555ZM4.09017 8.1995C3.84167 8.1995 3.64017 8.401 3.64017 8.6495C3.64017 8.898 3.84167 9.0995 4.09017 9.0995H6.31917C6.56767 9.0995 6.76917 8.898 6.76917 8.6495C6.76917 8.401 6.56767 8.1995 6.31917 8.1995H4.09017ZM12.6482 1.1835C11.1042 1.1835 9.84767 2.4395 9.84767 3.984C9.84767 5.5285 11.1037 6.7845 12.6482 6.7845C14.1927 6.7845 15.4487 5.528 15.4487 3.9835C15.4487 2.439 14.1927 1.1835 12.6482 1.1835ZM12.6482 5.884C11.6002 5.884 10.7477 5.0315 10.7477 3.9835C10.7477 2.9355 11.6002 2.083 12.6482 2.083C13.6962 2.083 14.5487 2.936 14.5487 3.9835C14.5487 5.031 13.6962 5.884 12.6482 5.884Z" fill="#16283F"/>
<path d="M13.5339 3.09651C13.3579 2.92051 13.0734 2.92051 12.8979 3.09651L12.6474 3.34701L12.3969 3.09651C12.2209 2.92051 11.9364 2.92051 11.7609 3.09651C11.5849 3.27201 11.5849 3.55701 11.7609 3.73251L12.0114 3.98301L11.7609 4.23351C11.5849 4.40901 11.5849 4.69401 11.7609 4.86951C11.8489 4.95751 11.9639 5.00151 12.0789 5.00151C12.1939 5.00151 12.3089 4.95751 12.3969 4.86951L12.6474 4.61901L12.8979 4.86951C12.9859 4.95751 13.1009 5.00151 13.2159 5.00151C13.3309 5.00151 13.4459 4.95751 13.5339 4.86951C13.7099 4.69401 13.7099 4.40901 13.5339 4.23351L13.2834 3.98301L13.5339 3.73251C13.7099 3.55751 13.7099 3.27201 13.5339 3.09651Z" fill="#16283F"/>
</svg>
