<svg width="16" height="16" viewBox="0 0 16 16" fill="none" xmlns="http://www.w3.org/2000/svg">
<path d="M12.0993 6.0965L11.8993 12.15C11.8822 12.6684 11.6638 13.1598 11.2904 13.5199C10.917 13.88 10.418 14.0803 9.89928 14.0785H6.09928C5.58089 14.0804 5.08216 13.8803 4.7088 13.5206C4.33545 13.161 4.11683 12.6701 4.09928 12.152L3.89928 6.0965C3.89491 5.96389 3.94339 5.83498 4.03406 5.73811C4.12473 5.64125 4.25017 5.58438 4.38278 5.58C4.51539 5.57562 4.6443 5.62411 4.74117 5.71478C4.83803 5.80545 4.89491 5.93089 4.89928 6.0635L5.09928 12.1185C5.10924 12.377 5.21898 12.6216 5.40545 12.8008C5.59191 12.9801 5.8406 13.0802 6.09928 13.08H9.89928C10.1583 13.0802 10.4073 12.9798 10.5938 12.8001C10.7803 12.6204 10.8898 12.3753 10.8993 12.1165L11.0993 6.0635C11.1037 5.93089 11.1605 5.80545 11.2574 5.71478C11.3543 5.62411 11.4832 5.57562 11.6158 5.58C11.7484 5.58438 11.8738 5.64125 11.9645 5.73811C12.0552 5.83498 12.1037 5.96389 12.0993 6.0965ZM12.7608 4.082C12.7608 4.21461 12.7081 4.34179 12.6143 4.43555C12.5206 4.52932 12.3934 4.582 12.2608 4.582H3.73828C3.60567 4.582 3.4785 4.52932 3.38473 4.43555C3.29096 4.34179 3.23828 4.21461 3.23828 4.082C3.23828 3.94939 3.29096 3.82222 3.38473 3.72845C3.4785 3.63468 3.60567 3.582 3.73828 3.582H5.28828C5.44671 3.58243 5.59962 3.5239 5.71727 3.4178C5.83492 3.3117 5.90889 3.16563 5.92478 3.008C5.96168 2.63824 6.13491 2.29547 6.41073 2.04645C6.68655 1.79744 7.04519 1.66003 7.41678 1.661H8.58178C8.95337 1.66003 9.31202 1.79744 9.58783 2.04645C9.86365 2.29547 10.0369 2.63824 10.0738 3.008C10.0897 3.16563 10.1636 3.3117 10.2813 3.4178C10.3989 3.5239 10.5519 3.58243 10.7103 3.582H12.2603C12.3929 3.582 12.5201 3.63468 12.6138 3.72845C12.7076 3.82222 12.7603 3.94939 12.7603 4.082H12.7608ZM6.79278 3.582H9.20678C9.14108 3.43187 9.09811 3.27279 9.07928 3.11C9.06689 2.98675 9.0092 2.87249 8.91738 2.78936C8.82556 2.70622 8.70615 2.66012 8.58228 2.66H7.41728C7.29341 2.66012 7.174 2.70622 7.08218 2.78936C6.99036 2.87249 6.93267 2.98675 6.92028 3.11C6.9013 3.27282 6.85866 3.4319 6.79278 3.582ZM7.29628 11.1575V6.9C7.29628 6.76739 7.2436 6.64022 7.14983 6.54645C7.05607 6.45268 6.92889 6.4 6.79628 6.4C6.66367 6.4 6.5365 6.45268 6.44273 6.54645C6.34896 6.64022 6.29628 6.76739 6.29628 6.9V11.1595C6.29628 11.2921 6.34896 11.4193 6.44273 11.5131C6.5365 11.6068 6.66367 11.6595 6.79628 11.6595C6.92889 11.6595 7.05607 11.6068 7.14983 11.5131C7.2436 11.4193 7.29628 11.2921 7.29628 11.1595V11.1575ZM9.70328 11.1575V6.9C9.70328 6.76739 9.6506 6.64022 9.55683 6.54645C9.46307 6.45268 9.33589 6.4 9.20328 6.4C9.07067 6.4 8.9435 6.45268 8.84973 6.54645C8.75596 6.64022 8.70328 6.76739 8.70328 6.9V11.1595C8.70328 11.2921 8.75596 11.4193 8.84973 11.5131C8.9435 11.6068 9.07067 11.6595 9.20328 11.6595C9.33589 11.6595 9.46307 11.6068 9.55683 11.5131C9.6506 11.4193 9.70328 11.2921 9.70328 11.1595V11.1575Z" fill="#E71010"/>
</svg>
