<svg width="16" height="16" viewBox="0 0 16 16" fill="none" xmlns="http://www.w3.org/2000/svg">
<path d="M10.0013 5.33301H12.9346L9.33464 1.73301V4.66634C9.33464 5.06634 9.6013 5.33301 10.0013 5.33301ZM10.0013 6.66634C8.86797 6.66634 8.0013 5.79967 8.0013 4.66634V1.33301H4.66797C3.53464 1.33301 2.66797 2.19967 2.66797 3.33301V12.6663C2.66797 13.7997 3.53464 14.6663 4.66797 14.6663H11.3346C12.468 14.6663 13.3346 13.7997 13.3346 12.6663V6.66634H10.0013ZM6.0013 5.33301H6.66797C7.06797 5.33301 7.33464 5.59967 7.33464 5.99967C7.33464 6.39967 7.06797 6.66634 6.66797 6.66634H6.0013C5.6013 6.66634 5.33464 6.39967 5.33464 5.99967C5.33464 5.59967 5.6013 5.33301 6.0013 5.33301ZM10.0013 11.9997H6.0013C5.6013 11.9997 5.33464 11.733 5.33464 11.333C5.33464 10.933 5.6013 10.6663 6.0013 10.6663H10.0013C10.4013 10.6663 10.668 10.933 10.668 11.333C10.668 11.733 10.4013 11.9997 10.0013 11.9997ZM10.0013 9.33301H6.0013C5.6013 9.33301 5.33464 9.06634 5.33464 8.66634C5.33464 8.26634 5.6013 7.99967 6.0013 7.99967H10.0013C10.4013 7.99967 10.668 8.26634 10.668 8.66634C10.668 9.06634 10.4013 9.33301 10.0013 9.33301Z" fill="#33343C"/>
</svg>
