<svg width="49" height="302" viewBox="0 0 49 302" fill="none" xmlns="http://www.w3.org/2000/svg">
<path d="M24.494 127.506C11.5184 127.506 1 138.024 1 151C1 163.975 11.5184 174.494 24.494 174.494C37.4692 174.494 47.988 163.976 47.988 151C47.988 138.024 37.4692 127.506 24.494 127.506ZM24.494 254.012C11.5184 254.012 1 264.53 1 277.506C1 290.482 11.5184 301 24.494 301C37.4692 301 47.988 290.482 47.988 277.506C47.988 264.53 37.4692 254.012 24.494 254.012ZM24.494 1C11.5184 1 1 11.5184 1 24.494C1 37.4692 11.5184 47.988 24.494 47.988C37.4692 47.988 47.988 37.4695 47.988 24.494C47.988 11.5184 37.4692 1 24.494 1Z" fill="black" stroke="black"/>
</svg>
