<svg width="16" height="16" viewBox="0 0 16 16" fill="none" xmlns="http://www.w3.org/2000/svg">
<path d="M3.21837 10.8088C3.07854 10.6862 3 10.5201 3 10.3469C3 10.1738 3.07854 10.0076 3.21837 9.88509L7.43532 6.19157C7.59817 6.04908 7.81816 5.98533 8.03101 6.00283C8.22386 6.00283 8.41599 6.06595 8.56242 6.19407L12.7815 9.88571C12.8508 9.94632 12.9057 10.0183 12.9432 10.0975C12.9807 10.1767 13 10.2615 13 10.3472C13 10.433 12.9807 10.5178 12.9432 10.597C12.9057 10.6762 12.8508 10.7482 12.7815 10.8088C12.7122 10.8694 12.63 10.9175 12.5395 10.9503C12.449 10.9831 12.352 11 12.254 11C12.1561 11 12.0591 10.9831 11.9686 10.9503C11.8781 10.9175 11.7958 10.8694 11.7266 10.8088L7.99816 7.54648L4.27261 10.8088C4.20342 10.8694 4.12125 10.9175 4.0308 10.9503C3.94036 10.9831 3.8434 11 3.74549 11C3.64758 11 3.55062 10.9831 3.46018 10.9503C3.36973 10.9175 3.28756 10.8694 3.21837 10.8088Z" fill="#16283F"/>
</svg>
