<svg width="20" height="20" viewBox="0 0 20 20" fill="none" xmlns="http://www.w3.org/2000/svg">
<g id="eye" clip-path="url(#clip0_1_6320)">
<g id="Group">
<path id="Vector" d="M17.3194 9.55637C15.3759 7.61983 12.7442 6.53247 10.0006 6.53247C7.25704 6.53247 4.6253 7.61983 2.68185 9.55637C2.56416 9.67406 2.49805 9.83368 2.49805 10.0001C2.49805 10.1666 2.56416 10.3262 2.68185 10.4439C2.79954 10.5616 2.95917 10.6277 3.1256 10.6277C3.29204 10.6277 3.45166 10.5616 3.56935 10.4439C5.27566 8.73938 7.58881 7.78196 10.0006 7.78196C12.4124 7.78196 14.7256 8.73938 16.4319 10.4439C16.49 10.5024 16.5591 10.5489 16.6352 10.5807C16.7114 10.6124 16.7931 10.6287 16.8756 10.6287C16.9581 10.6287 17.0398 10.6124 17.116 10.5807C17.1921 10.5489 17.2613 10.5024 17.3194 10.4439C17.3779 10.3858 17.4244 10.3166 17.4562 10.2405C17.4879 10.1643 17.5042 10.0826 17.5042 10.0001C17.5042 9.91761 17.4879 9.83592 17.4562 9.75976C17.4244 9.68359 17.3779 9.61447 17.3194 9.55637ZM15.0006 13.2314C12.9846 14.5498 10.5304 15.0214 8.16935 14.5439C8.00359 14.5107 7.83145 14.5448 7.6908 14.6385C7.55015 14.7323 7.45251 14.8781 7.41935 15.0439C7.3862 15.2096 7.42026 15.3818 7.51402 15.5224C7.60779 15.6631 7.75359 15.7607 7.91935 15.7939C10.6054 16.3369 13.3973 15.7979 15.6881 14.2939C15.829 14.2027 15.9279 14.0593 15.9631 13.8952C15.9982 13.7311 15.9668 13.5598 15.8756 13.4189C15.7844 13.278 15.641 13.1791 15.4769 13.1439C15.3128 13.1087 15.1415 13.1402 15.0006 13.2314ZM6.0381 13.8251C5.68093 13.6477 5.3345 13.4495 5.0006 13.2314C4.86337 13.1578 4.70361 13.138 4.55259 13.176C4.40158 13.2141 4.27019 13.3071 4.18417 13.4369C4.09815 13.5667 4.06369 13.724 4.08754 13.8778C4.11139 14.0317 4.19183 14.1712 4.3131 14.2689C4.69257 14.5234 5.08937 14.751 5.5006 14.9501C5.58396 14.992 5.67608 15.0134 5.76935 15.0126C5.91051 15.0118 6.04723 14.9632 6.15725 14.8748C6.26727 14.7863 6.34412 14.6633 6.37528 14.5256C6.40644 14.3879 6.39007 14.2437 6.32885 14.1166C6.26763 13.9894 6.16515 13.8866 6.0381 13.8251Z" fill="white"/>
<path id="Vector_2" d="M10.0008 13.75C10.4952 13.75 10.9786 13.6034 11.3897 13.3287C11.8008 13.054 12.1212 12.6635 12.3105 12.2067C12.4997 11.7499 12.5492 11.2472 12.4527 10.7623C12.3563 10.2773 12.1182 9.83186 11.7685 9.48223C11.4189 9.1326 10.9734 8.8945 10.4885 8.79804C10.0035 8.70157 9.50087 8.75108 9.04406 8.9403C8.58724 9.12952 8.1968 9.44995 7.92209 9.86107C7.64739 10.2722 7.50077 10.7555 7.50077 11.25C7.50077 11.913 7.76416 12.5489 8.233 13.0178C8.70184 13.4866 9.33772 13.75 10.0008 13.75ZM10.0008 10C10.248 10 10.4897 10.0733 10.6952 10.2107C10.9008 10.348 11.061 10.5432 11.1556 10.7716C11.2502 11.0001 11.275 11.2514 11.2267 11.4939C11.1785 11.7363 11.0595 11.9591 10.8846 12.1339C10.7098 12.3087 10.4871 12.4278 10.2446 12.476C10.0022 12.5242 9.75082 12.4995 9.52241 12.4049C9.294 12.3102 9.09878 12.15 8.96143 11.9445C8.82408 11.7389 8.75077 11.4972 8.75077 11.25C8.75077 10.9185 8.88246 10.6005 9.11688 10.3661C9.3513 10.1317 9.66925 10 10.0008 10ZM10.0008 5C10.1665 5 10.3255 4.93415 10.4427 4.81694C10.5599 4.69973 10.6258 4.54076 10.6258 4.375V2.5C10.6258 2.33424 10.5599 2.17527 10.4427 2.05806C10.3255 1.94085 10.1665 1.875 10.0008 1.875C9.83501 1.875 9.67603 1.94085 9.55882 2.05806C9.44161 2.17527 9.37577 2.33424 9.37577 2.5V4.375C9.37577 4.54076 9.44161 4.69973 9.55882 4.81694C9.67603 4.93415 9.83501 5 10.0008 5ZM13.1258 5.625C13.2287 5.62447 13.3299 5.59852 13.4204 5.54945C13.5109 5.50039 13.5879 5.42973 13.6445 5.34375L14.8945 3.46875C14.9491 3.40103 14.9889 3.32266 15.0114 3.23867C15.034 3.15468 15.0387 3.06691 15.0254 2.98097C15.0121 2.89503 14.981 2.81282 14.9341 2.73959C14.8872 2.66636 14.8255 2.60373 14.753 2.55569C14.6805 2.50765 14.5988 2.47527 14.5131 2.46062C14.4274 2.44597 14.3395 2.44937 14.2552 2.47059C14.1709 2.49182 14.0919 2.53042 14.0233 2.58391C13.9548 2.6374 13.8981 2.70462 13.857 2.78125L12.607 4.65625C12.5166 4.79404 12.4842 4.96199 12.517 5.12352C12.5497 5.28506 12.645 5.42711 12.782 5.51875C12.8827 5.58925 13.0029 5.6264 13.1258 5.625ZM6.35702 5.34375C6.41363 5.42973 6.49061 5.50039 6.58111 5.54945C6.67161 5.59852 6.77282 5.62447 6.87577 5.625C6.99864 5.6264 7.11886 5.58925 7.21952 5.51875C7.35652 5.42711 7.45178 5.28506 7.48456 5.12352C7.51734 4.96199 7.48497 4.79404 7.39452 4.65625L6.14452 2.78125C6.10341 2.70462 6.04676 2.6374 5.9782 2.58391C5.90963 2.53042 5.83066 2.49182 5.74633 2.47059C5.662 2.44937 5.57416 2.44597 5.48844 2.46062C5.40272 2.47527 5.321 2.50765 5.24851 2.55569C5.17602 2.60373 5.11435 2.66636 5.06745 2.73959C5.02054 2.81282 4.98944 2.89503 4.97612 2.98097C4.9628 3.06691 4.96757 3.15468 4.99011 3.23867C5.01265 3.32266 5.05246 3.40103 5.10702 3.46875L6.35702 5.34375Z" fill="white"/>
</g>
</g>
<defs>
<clipPath id="clip0_1_6320">
<rect width="20" height="20" fill="white"/>
</clipPath>
</defs>
</svg>
