<svg width="28" height="28" viewBox="0 0 28 28" fill="none" xmlns="http://www.w3.org/2000/svg">
<path d="M4.84093 15.1375C4.74707 14.5449 5.07957 14.0872 5.67219 13.9934L21.4752 11.4904C22.0678 11.3966 22.5255 11.7291 22.6193 12.3217C22.7132 12.9143 22.3807 13.3719 21.7881 13.4658L5.98506 15.9687C5.39244 16.0626 4.93479 15.7301 4.84093 15.1375Z" fill="#523EC6"/>
<path d="M16.4877 18.3552C16.4407 18.0588 16.5082 17.8457 16.6745 17.6168L20.8308 11.8962C21.1633 11.4386 21.7559 11.3447 22.2135 11.6772C22.6712 12.0097 22.765 12.6023 22.4325 13.06L18.2763 18.7806C17.9438 19.2382 17.3511 19.3321 16.8935 18.9996C16.6647 18.8334 16.5346 18.6515 16.4877 18.3552Z" fill="#523EC6"/>
<path d="M14.9223 8.47824C14.8754 8.18193 14.9429 7.96875 15.1091 7.73993C15.4416 7.28228 16.0342 7.18842 16.4919 7.52092L22.2125 11.6772C22.6701 12.0097 22.764 12.6023 22.4315 13.06C22.099 13.5176 21.5064 13.6115 21.0487 13.279L15.3281 9.12269C15.0993 8.95644 14.9692 8.77454 14.9223 8.47824Z" fill="#523EC6"/>
</svg>
