<svg width="24" height="24" viewBox="0 0 24 24" fill="none" xmlns="http://www.w3.org/2000/svg">
<g clip-path="url(#clip0_1859_12087)">
<path d="M6.00213 10.9091H3.82031V1.09091C3.82031 0.488182 4.30849 0 4.91122 0C5.51395 0 6.00213 0.488182 6.00213 1.09091V10.9091Z" fill="#2873EA"/>
<path d="M18 10.9091H20.1818V1.09091C20.1818 0.488182 19.6936 0 19.0909 0C18.4882 0 18 0.488182 18 1.09091V10.9091Z" fill="#2873EA"/>
<path d="M6.54616 15.2723H3.27344V10.9087H6.54616V15.2723Z" fill="#C5DBF9"/>
<path d="M17.4531 15.2723H20.7259V10.9087H17.4531V15.2723Z" fill="#C5DBF9"/>
<path d="M18.544 15.2726H5.45312L5.79185 13.9172C5.91349 13.4317 6.34985 13.0908 6.85058 13.0908H17.1466C17.6473 13.0908 18.0837 13.4317 18.2053 13.9172L18.544 15.2726Z" fill="#C5DBF9"/>
<path d="M22.908 21.8184H1.08984V22.9093C1.08984 23.512 1.57803 24.0002 2.18075 24.0002H21.8171C22.4198 24.0002 22.908 23.512 22.908 22.9093V21.8184Z" fill="#C5DBF9"/>
<path d="M22.9091 21.8179H1.09091C0.488182 21.8179 0 21.3297 0 20.727V16.3634C0 15.7606 0.488182 15.2725 1.09091 15.2725H22.9091C23.5118 15.2725 24 15.7606 24 16.3634V20.727C24 21.3297 23.5118 21.8179 22.9091 21.8179Z" fill="#2873EA"/>
<path d="M15.8161 19.0909H14.7251C14.4235 19.0909 14.1797 18.8471 14.1797 18.5455C14.1797 18.2438 14.4235 18 14.7251 18H15.8161C16.1177 18 16.3615 18.2438 16.3615 18.5455C16.3615 18.8471 16.1177 19.0909 15.8161 19.0909Z" fill="#F3F9FF"/>
<path d="M12.5465 19.0909H11.4556C11.154 19.0909 10.9102 18.8471 10.9102 18.5455C10.9102 18.2438 11.154 18 11.4556 18H12.5465C12.8482 18 13.092 18.2438 13.092 18.5455C13.092 18.8471 12.8482 19.0909 12.5465 19.0909Z" fill="#F3F9FF"/>
<path d="M20.1818 18.545C20.1818 19.1477 19.6936 19.6359 19.0909 19.6359C18.4882 19.6359 18 19.1477 18 18.545C18 17.9423 18.4882 17.4541 19.0909 17.4541C19.6936 17.4541 20.1818 17.9423 20.1818 18.545Z" fill="#F3F9FF"/>
<path d="M8.72798 19.6359H3.81889C3.5178 19.6359 3.27344 19.3916 3.27344 19.0905V17.9996C3.27344 17.6985 3.5178 17.4541 3.81889 17.4541H8.72798C9.02907 17.4541 9.27344 17.6985 9.27344 17.9996V19.0905C9.27344 19.3916 9.02907 19.6359 8.72798 19.6359Z" fill="#F3F9FF"/>
</g>
<defs>
<clipPath id="clip0_1859_12087">
<rect width="24" height="24" fill="white"/>
</clipPath>
</defs>
</svg>
