<svg width="16" height="16" viewBox="0 0 16 16" fill="none" xmlns="http://www.w3.org/2000/svg">
<path d="M2.24934 2C1.7551 2 1.32786 2.28684 1.125 2.70312L6.57761 6.4109C6.83211 6.58398 7.16654 6.58398 7.42106 6.4109L12.8737 2.70312C12.6708 2.28684 12.2436 2 11.7493 2H2.24934Z" fill="#33343C"/>
<path d="M1 3.25013C1 3.24096 1.0001 3.23178 1.0003 3.22266L6.2971 6.82448C6.7213 7.11296 7.2787 7.11296 7.7029 6.82448L12.9997 3.22266C12.9999 3.23178 13 3.24096 13 3.25013V7.21351C12.609 7.07533 12.1883 7.00013 11.75 7.00013C9.67892 7.00013 8 8.67906 8 10.7501C8 10.8341 8.00277 10.9175 8.0082 11.0001H2.25C1.9976 11.0001 1.76266 10.9253 1.56616 10.7967L4.72985 7.67818C4.82817 7.58126 4.82932 7.42296 4.7324 7.32463C4.63547 7.22631 4.47717 7.22516 4.37885 7.32208L1.21074 10.4449C1.07763 10.2462 1 10.0073 1 9.75013V3.25013Z" fill="#33343C"/>
<path fill-rule="evenodd" clip-rule="evenodd" d="M8.5 10.75C8.5 8.95508 9.95508 7.5 11.75 7.5C13.5449 7.5 15 8.95508 15 10.75C15 12.5449 13.5449 14 11.75 14C9.95508 14 8.5 12.5449 8.5 10.75ZM10 10.75C10 10.6119 10.1119 10.5 10.25 10.5H11.5V9.25C11.5 9.11193 11.6119 9 11.75 9C11.8881 9 12 9.11193 12 9.25V10.5H13.25C13.3881 10.5 13.5 10.6119 13.5 10.75C13.5 10.8881 13.3881 11 13.25 11H12V12.25C12 12.3881 11.8881 12.5 11.75 12.5C11.6119 12.5 11.5 12.3881 11.5 12.25V11H10.25C10.1119 11 10 10.8881 10 10.75Z" fill="#33343C"/>
</svg>
