<svg width="24" height="24" viewBox="0 0 24 24" fill="none" xmlns="http://www.w3.org/2000/svg">
<path d="M17.8041 22.0393H0.847815C0.379398 22.0393 0 21.6599 0 21.1914V8.5734C0 8.10498 0.379398 7.72559 0.847815 7.72559H17.8041C18.2725 7.72559 18.6519 8.10498 18.6519 8.5734V21.1914C18.6519 21.6599 18.2725 22.0393 17.8041 22.0393Z" fill="#C5DBF9"/>
<path d="M10.8736 12.5568L8.03541 11.1377C7.84525 11.0429 7.625 11.1825 7.625 11.392V14.2302C7.625 14.3855 7.75102 14.5141 7.90882 14.5141C8.00476 14.5141 7.76748 14.618 10.8736 13.0649C11.0823 12.9601 11.0825 12.6616 10.8736 12.5568Z" fill="#2873EA"/>
<path d="M17.8041 22.0394H0.847815C0.379398 22.0394 0 21.66 0 21.1916V17.4756H18.6519V21.1916C18.6519 21.66 18.2725 22.0394 17.8041 22.0394Z" fill="#F3F9FF"/>
<path d="M16.5321 20.0177H2.11922C1.88522 20.0177 1.69531 19.8283 1.69531 19.5938C1.69531 19.3594 1.88522 19.1699 2.11922 19.1699H16.5321C16.7661 19.1699 16.956 19.3594 16.956 19.5938C16.956 19.8283 16.7661 20.0177 16.5321 20.0177Z" fill="#C5DBF9"/>
<path d="M3.39266 20.4407C3.15866 20.4407 2.96875 20.2513 2.96875 20.0168V19.169C2.96875 18.9346 3.15866 18.7451 3.39266 18.7451C3.62665 18.7451 3.81657 18.9346 3.81657 19.169V20.0168C3.81657 20.2513 3.62665 20.4407 3.39266 20.4407Z" fill="#2873EA"/>
<path d="M22.8415 8.36477L23.8794 9.53785C24.0136 9.68996 24.0358 9.91036 23.9341 10.0855L23.0176 11.6712C22.9164 11.8464 22.7143 11.9372 22.5156 11.8967L20.9841 11.5836C20.7506 11.536 20.5184 11.6702 20.443 11.8963L19.9476 13.3821C19.8836 13.5742 19.7037 13.7037 19.5012 13.7037L17.6683 13.7037C17.4653 13.7037 17.2855 13.5742 17.2214 13.3821L16.726 11.8963C16.6506 11.6702 16.4185 11.536 16.1849 11.5836L14.6534 11.8967C14.4547 11.9372 14.2527 11.8463 14.1514 11.6712L13.235 10.0855C13.1337 9.91035 13.1559 9.68995 13.2901 9.53784L14.3275 8.36476C14.4853 8.18675 14.4853 7.91879 14.3275 7.74078L13.2901 6.56769C13.1559 6.41558 13.1337 6.19518 13.235 6.02L14.1514 4.43437C14.2527 4.25919 14.4552 4.1683 14.6534 4.2088L16.1849 4.52197C16.4185 4.56953 16.6506 4.43532 16.726 4.20927L17.2214 2.72349C17.2855 2.53135 17.4654 2.40137 17.6683 2.40137L19.5012 2.40137C19.7037 2.40137 19.8836 2.53135 19.9476 2.72349L20.4431 4.20928C20.5184 4.43532 20.7506 4.56954 20.9841 4.52197L22.5156 4.20881C22.7143 4.16831 22.9164 4.2592 23.0176 4.43438L23.9341 6.02001C24.0358 6.19519 24.0136 6.41559 23.8794 6.5677L22.8415 7.74078C22.6837 7.91879 22.6837 8.18675 22.8415 8.36477Z" fill="#2873EA"/>
<path d="M21.409 8.05214C21.409 9.61281 20.1441 10.8777 18.5834 10.8777C17.0227 10.8777 15.7578 9.61281 15.7578 8.05214C15.7578 6.49148 17.0227 5.22656 18.5834 5.22656C20.1441 5.22656 21.409 6.49148 21.409 8.05214Z" fill="#F8F9F9"/>
<g clip-path="url(#clip0_1859_12163)">
<path d="M18.625 9.30805V6.7666" stroke="#2873EA" stroke-width="0.739332" stroke-linecap="round" stroke-linejoin="round"/>
<path d="M19.6641 7.80629L18.6244 6.7666L17.5847 7.80629" stroke="#2873EA" stroke-width="0.739332" stroke-linecap="round" stroke-linejoin="round"/>
</g>
<defs>
<clipPath id="clip0_1859_12163">
<rect width="3.69666" height="3.69666" fill="white" transform="matrix(0 1 -1 0 20.4727 6.18945)"/>
</clipPath>
</defs>
</svg>
