<svg width="16" height="16" viewBox="0 0 16 16" fill="none" xmlns="http://www.w3.org/2000/svg">
<rect x="0.2" y="0.2" width="15.6" height="15.6" rx="1.4" stroke="black" stroke-opacity="0.3" stroke-width="0.4"/>
<g opacity="0.3" clip-path="url(#clip0_837_4006)">
<path d="M12.4016 5.9999H10.8016V4.7999C10.8016 4.16338 10.5487 3.55293 10.0986 3.10285C9.64853 2.65276 9.03808 2.3999 8.40156 2.3999C7.76504 2.3999 7.15459 2.65276 6.70451 3.10285C6.25442 3.55293 6.00156 4.16338 6.00156 4.7999V5.9999H4.40156C4.18939 5.9999 3.98591 6.08419 3.83588 6.23422C3.68585 6.38425 3.60156 6.58773 3.60156 6.7999V12.3999C3.60156 12.6121 3.68585 12.8156 3.83588 12.9656C3.98591 13.1156 4.18939 13.1999 4.40156 13.1999H12.4016C12.6137 13.1999 12.8172 13.1156 12.9672 12.9656C13.1173 12.8156 13.2016 12.6121 13.2016 12.3999V6.7999C13.2016 6.58773 13.1173 6.38425 12.9672 6.23422C12.8172 6.08419 12.6137 5.9999 12.4016 5.9999ZM8.40156 10.1999C8.28289 10.1999 8.16689 10.1647 8.06822 10.0988C7.96955 10.0329 7.89265 9.93915 7.84723 9.82951C7.80182 9.71988 7.78994 9.59924 7.81309 9.48285C7.83624 9.36646 7.89339 9.25955 7.9773 9.17564C8.06121 9.09173 8.16812 9.03458 8.28451 9.01143C8.4009 8.98828 8.52154 9.00016 8.63117 9.04558C8.74081 9.09099 8.83452 9.16789 8.90044 9.26656C8.96637 9.36523 9.00156 9.48123 9.00156 9.5999C9.00156 9.75903 8.93835 9.91164 8.82583 10.0242C8.7133 10.1367 8.56069 10.1999 8.40156 10.1999ZM10.0016 5.9999H6.80156V4.7999C6.80156 4.37556 6.97013 3.96859 7.27019 3.66853C7.57025 3.36847 7.97722 3.1999 8.40156 3.1999C8.82591 3.1999 9.23287 3.36847 9.53293 3.66853C9.83299 3.96859 10.0016 4.37556 10.0016 4.7999V5.9999Z" fill="black"/>
</g>
<defs>
<clipPath id="clip0_837_4006">
<rect width="12.8" height="12.8" fill="white" transform="translate(2 2)"/>
</clipPath>
</defs>
</svg>
