<svg width="20" height="20" viewBox="0 0 20 20" fill="none" xmlns="http://www.w3.org/2000/svg">
<path d="M16.6937 8.30588L14.8187 6.43088C14.7011 6.31319 14.5414 6.24707 14.375 6.24707C14.2086 6.24707 14.0489 6.31319 13.9313 6.43088C13.8136 6.54857 13.7474 6.70819 13.7474 6.87463C13.7474 7.04107 13.8136 7.20069 13.9313 7.31838L14.7438 8.12463H11.25C11.0842 8.12463 10.9253 8.19048 10.8081 8.30769C10.6908 8.4249 10.625 8.58387 10.625 8.74963C10.625 8.91539 10.6908 9.07436 10.8081 9.19157C10.9253 9.30878 11.0842 9.37463 11.25 9.37463H14.7438L13.9313 10.1809C13.8136 10.2986 13.7474 10.4582 13.7474 10.6246C13.7474 10.7911 13.8136 10.9507 13.9313 11.0684C14.0489 11.1861 14.2086 11.2522 14.375 11.2522C14.5414 11.2522 14.7011 11.1861 14.8187 11.0684L16.6937 9.19338C16.7523 9.13528 16.7988 9.06615 16.8306 8.98999C16.8623 8.91383 16.8786 8.83213 16.8786 8.74963C16.8786 8.66712 16.8623 8.58543 16.8306 8.50927C16.7988 8.4331 16.7523 8.36398 16.6937 8.30588Z" fill="#FF3737"/>
<path d="M13.75 12.5C13.5842 12.5 13.4253 12.5658 13.3081 12.6831C13.1908 12.8003 13.125 12.9592 13.125 13.125V15H10V5.625C9.99947 5.52206 9.97352 5.42084 9.92445 5.33034C9.87539 5.23985 9.80473 5.16287 9.71875 5.10625L5.8125 2.5H13.125V4.375C13.125 4.54076 13.1908 4.69973 13.3081 4.81694C13.4253 4.93415 13.5842 5 13.75 5C13.9158 5 14.0747 4.93415 14.1919 4.81694C14.3092 4.69973 14.375 4.54076 14.375 4.375V1.875C14.375 1.70924 14.3092 1.55027 14.1919 1.43306C14.0747 1.31585 13.9158 1.25 13.75 1.25H3.75C3.58424 1.25 3.42527 1.31585 3.30806 1.43306C3.19085 1.55027 3.125 1.70924 3.125 1.875V14.375C3.12553 14.4779 3.15148 14.5792 3.20055 14.6697C3.24962 14.7602 3.32027 14.8371 3.40625 14.8938L9.03125 18.6437C9.12349 18.7034 9.22983 18.7377 9.33956 18.7432C9.44928 18.7487 9.55852 18.7252 9.65625 18.675C9.75838 18.6235 9.84444 18.5451 9.90505 18.4481C9.96566 18.3511 9.99851 18.2394 10 18.125V16.25H13.75C13.9158 16.25 14.0747 16.1842 14.1919 16.0669C14.3092 15.9497 14.375 15.7908 14.375 15.625V13.125C14.375 12.9592 14.3092 12.8003 14.1919 12.6831C14.0747 12.5658 13.9158 12.5 13.75 12.5ZM8.75 16.9562L4.375 14.0375V3.04375L8.75 5.9625V16.9562Z" fill="#FF3737"/>
</svg>
