<svg width="24" height="24" viewBox="0 0 24 24" fill="none" xmlns="http://www.w3.org/2000/svg">
<g clip-path="url(#clip0_1859_11685)">
<path d="M23.0696 4.08496V17.8722C23.0696 18.7198 22.3854 19.4041 21.5377 19.4041H2.13348C1.28582 19.4041 0.601562 18.7198 0.601562 17.8722V4.08496H23.0696Z" fill="#C5DBF9"/>
<path d="M3.06641 6.85986L9.39688 6.86558" stroke="#F3F9FF" stroke-width="1.70212" stroke-linecap="round"/>
<path d="M3.06641 8.95361L7.37986 8.9579" stroke="#F3F9FF" stroke-width="1.70212" stroke-linecap="round"/>
<path d="M3.06641 10.9712L5.27348 10.9755" stroke="#F3F9FF" stroke-width="1.70212" stroke-linecap="round"/>
<path d="M20.007 10.0899H16.7635C16.1997 10.0899 15.7422 9.63286 15.7422 9.06861V6.63797C15.7422 6.07372 16.1997 5.6167 16.7635 5.6167H20.007C20.5713 5.6167 21.0283 6.07372 21.0283 6.63797V9.06861C21.0283 9.63286 20.5713 10.0899 20.007 10.0899Z" fill="#F3F9FF"/>
<path d="M23.0696 1.53191V4.0851H0.601562V1.53191C0.601562 0.684254 1.28582 0 2.13348 0H21.5377C22.3854 0 23.0696 0.684254 23.0696 1.53191Z" fill="#2873EA"/>
<path d="M21.5369 2.04238C21.5369 2.32425 21.3081 2.55301 21.0263 2.55301C20.7444 2.55301 20.5156 2.32425 20.5156 2.04238C20.5156 1.7605 20.7444 1.53174 21.0263 1.53174C21.3081 1.53174 21.5369 1.7605 21.5369 2.04238Z" fill="#F8F9F9"/>
<path d="M19.4939 2.04238C19.4939 2.32425 19.2652 2.55301 18.9833 2.55301C18.7014 2.55301 18.4727 2.32425 18.4727 2.04238C18.4727 1.7605 18.7014 1.53174 18.9833 1.53174C19.2652 1.53174 19.4939 1.7605 19.4939 2.04238Z" fill="#F8F9F9"/>
<path d="M3.15409 2.04238C3.15409 2.32425 2.92532 2.55301 2.64345 2.55301C2.36158 2.55301 2.13281 2.32425 2.13281 2.04238C2.13281 1.7605 2.36158 1.53174 2.64345 1.53174C2.92532 1.53174 3.15409 1.7605 3.15409 2.04238Z" fill="#F8F9F9"/>
<path d="M15.9191 2.55301H7.74892C7.46654 2.55301 7.23828 2.32425 7.23828 2.04238C7.23828 1.7605 7.46654 1.53174 7.74892 1.53174H15.9191C16.2015 1.53174 16.4298 1.7605 16.4298 2.04238C16.4298 2.32425 16.2015 2.55301 15.9191 2.55301Z" fill="#F8F9F9"/>
<path d="M17.9076 11.9356C14.7625 11.9356 12.9084 10.3255 12.4151 9.83226C12.2405 9.65813 11.9576 9.65813 11.783 9.83226C11.2897 10.3255 9.43557 11.9356 6.29056 11.9356C6.04341 11.9356 5.84375 12.1357 5.84375 12.3824V15.0954C5.84375 19.0013 8.29277 22.5676 11.9387 23.9698C11.9903 23.9897 12.0444 23.9994 12.0991 23.9994C12.1537 23.9994 12.2078 23.9897 12.2594 23.9698C15.9054 22.5676 18.3544 19.0013 18.3544 15.0954V12.3824C18.3544 12.1357 18.1547 11.9356 17.9076 11.9356Z" fill="#2873EA"/>
<path d="M16.6232 13.1952C14.6588 12.944 13.2209 12.1515 12.3599 11.5305C12.2037 11.4182 11.9933 11.4182 11.837 11.5305C10.9761 12.1515 9.53814 12.944 7.57372 13.1952C7.35057 13.2238 7.18359 13.4133 7.18359 13.6385V15.0953C7.18359 18.2572 9.03874 21.1642 11.9095 22.5021C11.9698 22.5302 12.0336 22.544 12.0985 22.544C12.1628 22.544 12.2272 22.5302 12.2874 22.5021C15.1582 21.1642 17.0134 18.2572 17.0134 15.0953V13.6385C17.0134 13.4133 16.8464 13.2238 16.6232 13.1952Z" fill="#F3F9FF"/>
<path d="M15.4132 16.8502C15.4132 18.6808 13.9293 20.1647 12.0987 20.1647C10.2686 20.1647 8.78516 18.6808 8.78516 16.8502C8.78516 15.0196 10.2686 13.5356 12.0987 13.5356C13.9293 13.5356 15.4132 15.0196 15.4132 16.8502Z" fill="#2873EA"/>
<path d="M10.7227 16.8758L11.6035 17.8205L13.4865 15.9312" stroke="white" stroke-width="1.70212" stroke-linecap="round" stroke-linejoin="round"/>
</g>
<defs>
<clipPath id="clip0_1859_11685">
<rect width="24" height="24" fill="white"/>
</clipPath>
</defs>
</svg>
