<svg width="36" height="36" viewBox="0 0 36 36" fill="none" xmlns="http://www.w3.org/2000/svg">
<g filter="url(#filter0_i_3209_4142)">
<rect width="36" height="36" rx="18" fill="#A3A3A3" fill-opacity="0.16"/>
<rect x="0.5" y="0.5" width="35" height="35" rx="17.5" stroke="black" stroke-opacity="0.02"/>
<path d="M13.625 25.5H22.375C23.2038 25.5 23.9987 25.1708 24.5847 24.5847C25.1708 23.9987 25.5 23.2038 25.5 22.375V17.375C25.5 17.2092 25.4342 17.0503 25.3169 16.9331C25.1997 16.8158 25.0408 16.75 24.875 16.75C24.7092 16.75 24.5503 16.8158 24.4331 16.9331C24.3158 17.0503 24.25 17.2092 24.25 17.375V22.375C24.25 22.8723 24.0525 23.3492 23.7008 23.7008C23.3492 24.0525 22.8723 24.25 22.375 24.25H13.625C13.1277 24.25 12.6508 24.0525 12.2992 23.7008C11.9475 23.3492 11.75 22.8723 11.75 22.375V13.625C11.75 13.1277 11.9475 12.6508 12.2992 12.2992C12.6508 11.9475 13.1277 11.75 13.625 11.75H18.625C18.7908 11.75 18.9497 11.6842 19.0669 11.5669C19.1842 11.4497 19.25 11.2908 19.25 11.125C19.25 10.9592 19.1842 10.8003 19.0669 10.6831C18.9497 10.5658 18.7908 10.5 18.625 10.5H13.625C12.7962 10.5 12.0013 10.8292 11.4153 11.4153C10.8292 12.0013 10.5 12.7962 10.5 13.625V22.375C10.5 23.2038 10.8292 23.9987 11.4153 24.5847C12.0013 25.1708 12.7962 25.5 13.625 25.5Z" fill="black"/>
<path d="M17.0196 15.9747L16.8696 17.006C16.8208 17.2966 16.8413 17.5946 16.9292 17.8759C17.0172 18.1571 17.1702 18.4137 17.3758 18.6247C17.7271 18.9765 18.2037 19.1743 18.7008 19.1747H18.9696L20.0008 19.0247C20.4032 18.9675 20.7761 18.7811 21.0633 18.4935L24.7446 14.8122C24.977 14.5801 25.1614 14.3043 25.2872 14.0008C25.4131 13.6973 25.4778 13.372 25.4778 13.0435C25.4778 12.715 25.4131 12.3896 25.2872 12.0861C25.1614 11.7826 24.977 11.5069 24.7446 11.2747C24.268 10.8201 23.6346 10.5664 22.9758 10.5664C22.3171 10.5664 21.6837 10.8201 21.2071 11.2747L17.5258 14.956C17.2557 15.235 17.0788 15.5909 17.0196 15.9747ZM18.2696 16.1497C18.289 16.0173 18.3503 15.8947 18.4446 15.7997L22.1321 12.1185C22.2442 11.9876 22.3821 11.8814 22.5371 11.8063C22.6922 11.7313 22.8611 11.6891 23.0333 11.6825C23.2054 11.6758 23.3771 11.7049 23.5375 11.7677C23.6979 11.8305 23.8436 11.9259 23.9654 12.0477C24.0872 12.1695 24.1825 12.3152 24.2454 12.4756C24.3082 12.636 24.3372 12.8077 24.3306 12.9798C24.3239 13.152 24.2818 13.3209 24.2068 13.476C24.1317 13.631 24.0254 13.7689 23.8946 13.881L20.2133 17.5685C20.1184 17.6628 19.9957 17.7241 19.8633 17.7435L18.8321 17.8935C18.7351 17.9084 18.636 17.9002 18.5428 17.8696C18.4495 17.8391 18.3648 17.787 18.2954 17.7177C18.2261 17.6483 18.174 17.5635 18.1434 17.4703C18.1129 17.3771 18.1047 17.278 18.1196 17.181L18.2696 16.1497Z" fill="black"/>
</g>
<defs>
<filter id="filter0_i_3209_4142" x="0" y="0" width="36" height="38" filterUnits="userSpaceOnUse" color-interpolation-filters="sRGB">
<feFlood flood-opacity="0" result="BackgroundImageFix"/>
<feBlend mode="normal" in="SourceGraphic" in2="BackgroundImageFix" result="shape"/>
<feColorMatrix in="SourceAlpha" type="matrix" values="0 0 0 0 0 0 0 0 0 0 0 0 0 0 0 0 0 0 127 0" result="hardAlpha"/>
<feOffset dy="2"/>
<feGaussianBlur stdDeviation="2"/>
<feComposite in2="hardAlpha" operator="arithmetic" k2="-1" k3="1"/>
<feColorMatrix type="matrix" values="0 0 0 0 0 0 0 0 0 0 0 0 0 0 0 0 0 0 0.03 0"/>
<feBlend mode="normal" in2="shape" result="effect1_innerShadow_3209_4142"/>
</filter>
</defs>
</svg>
