<svg width="24" height="24" viewBox="0 0 24 24" fill="none" xmlns="http://www.w3.org/2000/svg">
<path d="M19.4105 16.0743C18.6435 15.0472 18.1838 13.8235 18.0849 12.5454V10.1759C18.1269 8.75738 17.6592 7.37071 16.7666 6.26739C15.874 5.16407 14.6156 4.41715 13.2195 4.16207C13.4207 3.92837 13.5506 3.64182 13.5938 3.33647C13.637 3.03111 13.5916 2.71978 13.463 2.43945C13.3345 2.15913 13.1282 1.92159 12.8686 1.75506C12.6091 1.58853 12.3072 1.50001 11.9988 1.5C11.6904 1.49999 11.3885 1.58851 11.1289 1.75503C10.8693 1.92155 10.663 2.15907 10.5344 2.43939C10.4059 2.71971 10.3605 3.03104 10.4036 3.3364C10.4468 3.64176 10.5767 3.92831 10.7779 4.16202C9.38181 4.41707 8.12334 5.164 7.23074 6.26736C6.33813 7.37071 5.8705 8.75743 5.91264 10.176L5.91257 12.5418C5.81449 13.8211 5.35474 15.0462 4.58695 16.0743C4.31483 16.3992 4.16642 16.8099 4.16798 17.2337C4.19327 17.8189 4.54362 18.5918 6.03898 18.9639C6.27736 19.0505 8.11948 19.6754 11.9915 19.6104C16.2549 19.6409 21.357 19.0345 19.4105 16.0743ZM12.6308 5.88492C12.6417 5.83888 12.6615 5.79542 12.6892 5.75705C12.7168 5.71868 12.7518 5.68615 12.7921 5.66132C12.8323 5.63649 12.8771 5.61985 12.9238 5.61235C12.9705 5.60486 13.0183 5.60665 13.0643 5.61764C13.8611 5.78264 14.5975 6.16276 15.1935 6.71675C15.7895 7.27073 16.2223 7.9774 16.4451 8.76004C16.5671 9.22189 16.6255 9.69828 16.6184 10.1759C16.6181 10.2715 16.5799 10.3631 16.5122 10.4306C16.4445 10.4981 16.3528 10.536 16.2572 10.536C16.1616 10.536 16.0699 10.4981 16.0022 10.4306C15.9345 10.3631 15.8963 10.2715 15.896 10.1759C15.9039 9.76549 15.8552 9.35591 15.7516 8.95869C15.5666 8.29754 15.2014 7.70084 14.6969 7.23522C14.1924 6.7696 13.5683 6.4534 12.8945 6.32194C12.8483 6.31088 12.8048 6.29075 12.7664 6.26271C12.7281 6.23467 12.6957 6.19929 12.6712 6.15862C12.6466 6.11796 12.6304 6.07281 12.6235 6.02583C12.6166 5.97884 12.6191 5.93094 12.6308 5.88492ZM11.1102 3.11093C11.1128 2.87701 11.2076 2.65355 11.3739 2.48907C11.5403 2.32458 11.7648 2.23233 11.9987 2.23234C12.2327 2.23234 12.4572 2.3246 12.6235 2.48909C12.7899 2.65358 12.8847 2.87703 12.8873 3.11096C12.8846 3.34488 12.7899 3.56834 12.6235 3.73282C12.4572 3.89731 12.2327 3.98956 11.9987 3.98955C11.7648 3.98955 11.5403 3.89729 11.3739 3.7328C11.2076 3.56831 11.1128 3.34486 11.1102 3.11093ZM12.5369 20.3364C11.5102 20.3335 10.438 20.3508 9.44145 20.2714C9.52667 20.8893 9.83279 21.4555 10.3032 21.8652C10.7736 22.2749 11.3765 22.5004 12.0003 22.5C12.6241 22.4995 13.2267 22.2732 13.6965 21.8628C14.1663 21.4525 14.4717 20.8859 14.556 20.2678C13.8867 20.3181 13.2526 20.3339 12.5369 20.3364Z" fill="#33343C"/>
<path d="M15.6016 6.10059C15.6016 4.71987 16.7209 3.60059 18.1016 3.60059C19.4823 3.60059 20.6016 4.71987 20.6016 6.10059C20.6016 7.4813 19.4823 8.60059 18.1016 8.60059C16.7209 8.60059 15.6016 7.4813 15.6016 6.10059Z" fill="#27B452"/>
</svg>
