<svg width="23" height="22" viewBox="0 0 23 22" fill="none" xmlns="http://www.w3.org/2000/svg">
<path d="M22.9708 5.73197V17.7735C22.9708 18.3254 22.5192 18.7769 21.9673 18.7769H1.898C1.34609 18.7769 0.894531 18.3254 0.894531 17.7735V4.72852H21.9673C22.5192 4.72852 22.9708 5.18007 22.9708 5.73197Z" fill="#2873EA"/>
<path d="M9.38883 4.72868H0.859375V1.7183C0.859375 1.1664 1.31093 0.714844 1.86284 0.714844H7.18622C7.60768 0.714844 7.97896 0.975743 8.12948 1.36709L8.45059 2.22003L9.38883 4.72868Z" fill="#2873EA"/>
<path d="M16.4137 4.72837H9.38941L8.45117 2.21973H14.7329C15.1393 2.21973 15.5105 2.47059 15.6611 2.85191L16.4137 4.72837Z" fill="#C5DBF9"/>
<path d="M12.8995 10.2476C12.8995 9.69319 12.4505 9.24414 11.896 9.24414C11.3416 9.24414 10.8926 9.69319 10.8926 10.2476C10.8926 10.802 11.3416 11.2511 11.896 11.2511C12.4505 11.2511 12.8995 10.802 12.8995 10.2476Z" fill="#F3F9FF"/>
<path d="M11.8967 6.73535C9.68353 6.73535 7.88281 8.53606 7.88281 10.7492C7.88281 12.9623 9.68353 14.763 11.8967 14.763C14.1098 14.763 15.9105 12.9623 15.9105 10.7492C15.9105 8.53606 14.1098 6.73535 11.8967 6.73535ZM13.8785 13.0095C13.8213 12.5574 13.6221 12.1475 13.3166 11.8379C12.9503 11.4767 12.4486 11.2509 11.8967 11.2509C10.8731 11.2509 10.0383 12.0191 9.91483 13.0095C9.28616 12.4571 8.88628 11.6498 8.88628 10.7492C8.88628 9.08897 10.2369 7.73881 11.8967 7.73881C13.5569 7.73881 14.9071 9.08897 14.9071 10.7492C14.9071 11.6498 14.5077 12.4576 13.8785 13.0095Z" fill="#F3F9FF"/>
<path d="M18.4179 21.2859H5.37283C5.09587 21.2859 4.87109 21.0611 4.87109 20.7841V16.7703C4.87109 16.4933 5.09587 16.2686 5.37283 16.2686H18.4179C18.6948 16.2686 18.9196 16.4933 18.9196 16.7703V20.7841C18.9196 21.0611 18.6948 21.2859 18.4179 21.2859Z" fill="#C5DBF9"/>
<path d="M8.33272 18.4449L8.79582 18.2804C8.98548 18.2131 9.1937 18.312 9.26193 18.5011H9.26243C9.33268 18.6958 9.22731 18.9105 9.03013 18.9738L8.53894 19.1313L8.85402 19.5442C8.97494 19.7028 8.94634 19.9291 8.7898 20.0525L8.77776 20.0625C8.61219 20.193 8.37086 20.1563 8.25094 19.9832L7.94639 19.5442L7.63531 19.9868C7.5149 20.1583 7.27457 20.1935 7.11 20.0635L7.10448 20.059C6.94493 19.9331 6.91884 19.7008 7.04678 19.5422L7.38043 19.1313L6.88272 18.9712C6.68804 18.909 6.58218 18.6988 6.64891 18.5051C6.71413 18.314 6.92235 18.2126 7.11351 18.2784L7.59969 18.4449V17.9312C7.59969 17.7295 7.76326 17.5664 7.96546 17.5664H7.96746C8.16916 17.5664 8.33272 17.7295 8.33272 17.9312V18.4449Z" fill="#2873EA"/>
<path d="M12.2702 18.4449L12.7333 18.2804C12.923 18.2131 13.1312 18.312 13.1994 18.5011H13.1999C13.2702 18.6958 13.1648 18.9105 12.9676 18.9738L12.4764 19.1313L12.7915 19.5442C12.9124 19.7028 12.8838 19.9291 12.7273 20.0525L12.7153 20.0625C12.5497 20.193 12.3084 20.1563 12.1884 19.9832L11.8839 19.5442L11.5728 19.9868C11.4524 20.1583 11.2121 20.1935 11.0475 20.0635L11.042 20.059C10.8824 19.9331 10.8563 19.7008 10.9843 19.5422L11.3179 19.1313L10.8202 18.9712C10.6255 18.909 10.5197 18.6988 10.5864 18.5051C10.6516 18.314 10.8599 18.2126 11.051 18.2784L11.5372 18.4449V17.9312C11.5372 17.7295 11.7008 17.5664 11.903 17.5664H11.905C12.1067 17.5664 12.2702 17.7295 12.2702 17.9312V18.4449Z" fill="#2873EA"/>
<path d="M16.3015 18.4449L16.7646 18.2804C16.9542 18.2131 17.1624 18.312 17.2307 18.5011H17.2312C17.3014 18.6958 17.1961 18.9105 16.9989 18.9738L16.5077 19.1313L16.8228 19.5442C16.9437 19.7028 16.9151 19.9291 16.7586 20.0525L16.7465 20.0625C16.5809 20.193 16.3396 20.1563 16.2197 19.9832L15.9151 19.5442L15.6041 19.9868C15.4836 20.1583 15.2433 20.1935 15.0788 20.0635L15.0732 20.059C14.9137 19.9331 14.8876 19.7008 15.0155 19.5422L15.3492 19.1313L14.8515 18.9712C14.6568 18.909 14.5509 18.6988 14.6177 18.5051C14.6829 18.314 14.8911 18.2126 15.0823 18.2784L15.5684 18.4449V17.9312C15.5684 17.7295 15.732 17.5664 15.9342 17.5664H15.9362C16.1379 17.5664 16.3015 17.7295 16.3015 17.9312V18.4449Z" fill="#2873EA"/>
</svg>
