<svg width="28" height="28" viewBox="0 0 28 28" fill="none" xmlns="http://www.w3.org/2000/svg">
<path d="M16.8523 10.2H21.0323L15.9023 5.07V9.25C15.9023 9.82 16.2823 10.2 16.8523 10.2ZM16.8523 12.1C15.2373 12.1 14.0023 10.865 14.0023 9.25V4.5H9.25234C7.63734 4.5 6.40234 5.735 6.40234 7.35V20.65C6.40234 22.265 7.63734 23.5 9.25234 23.5H18.7523C20.3673 23.5 21.6023 22.265 21.6023 20.65V12.1H16.8523ZM11.1523 10.2H12.1023C12.6723 10.2 13.0523 10.58 13.0523 11.15C13.0523 11.72 12.6723 12.1 12.1023 12.1H11.1523C10.5823 12.1 10.2023 11.72 10.2023 11.15C10.2023 10.58 10.5823 10.2 11.1523 10.2ZM16.8523 19.7H11.1523C10.5823 19.7 10.2023 19.32 10.2023 18.75C10.2023 18.18 10.5823 17.8 11.1523 17.8H16.8523C17.4223 17.8 17.8023 18.18 17.8023 18.75C17.8023 19.32 17.4223 19.7 16.8523 19.7ZM16.8523 15.9H11.1523C10.5823 15.9 10.2023 15.52 10.2023 14.95C10.2023 14.38 10.5823 14 11.1523 14H16.8523C17.4223 14 17.8023 14.38 17.8023 14.95C17.8023 15.52 17.4223 15.9 16.8523 15.9Z" fill="#33343C"/>
</svg>
