<svg width="41" height="40" viewBox="0 0 41 40" fill="none" xmlns="http://www.w3.org/2000/svg">
<path d="M21.0769 23.7043C22.0781 23.7123 22.7337 23.1639 22.7337 22.0055C22.7337 20.9607 22.1429 20.4639 21.1921 20.4639C20.9545 20.4639 20.7889 20.4855 20.6953 20.5071V23.6823C20.7893 23.7043 20.9473 23.7043 21.0769 23.7043Z" fill="#ED1C24"/>
<path d="M28.4058 9.9452C27.8886 9.9452 27.3927 9.73981 27.027 9.3742C26.6613 9.00859 26.4559 8.5127 26.4557 7.9956V2H8.54295C8.02595 2.00011 7.53017 2.20556 7.16463 2.57117C6.7991 2.93678 6.59375 3.4326 6.59375 3.9496V36.0504C6.59375 36.5674 6.7991 37.0632 7.16463 37.4288C7.53017 37.7944 8.02595 37.9999 8.54295 38H32.4514C32.9683 37.9999 33.4641 37.7944 33.8297 37.4288C34.1952 37.0632 34.4006 36.5674 34.4006 36.0504V9.9452H28.4058ZM13.9245 24.5904H13.9169C13.5493 24.5904 13.2829 24.31 13.2829 23.928C13.2829 23.532 13.5493 23.2584 13.9309 23.2584C14.3053 23.2584 14.5649 23.5248 14.5721 23.928C14.5725 24.3096 14.3141 24.5904 13.9245 24.5904ZM18.3889 22.2864C18.0137 22.632 17.4521 22.7976 16.8041 22.7976C16.6597 22.7976 16.5301 22.7908 16.4293 22.7692V24.5116H15.3417V19.722C15.6805 19.6644 16.1557 19.6212 16.8253 19.6212C17.5029 19.6212 17.9925 19.7508 18.3165 20.0172C18.6265 20.2552 18.8281 20.6584 18.8281 21.134C18.8285 21.6164 18.6769 22.02 18.3889 22.2864ZM23.8897 21.97C23.8897 22.8984 23.5513 23.5396 23.0905 23.9356C22.5789 24.3608 21.7941 24.562 20.8433 24.562C20.2741 24.562 19.8641 24.526 19.5977 24.4892V19.7292C20.0005 19.6572 20.5265 19.6212 21.0737 19.6212C22.0029 19.6212 22.6077 19.7724 23.0685 20.1252C23.1313 20.172 23.1917 20.2224 23.2485 20.2764C23.6469 20.6548 23.8897 21.2128 23.8897 21.9688V21.97ZM27.6477 20.5576H25.7829V21.666H27.5253V22.5596H25.7829V24.5112H24.6881V19.6568H27.6477V20.5576Z" fill="#ED1C24"/>
<path d="M17.7479 21.1692C17.7483 20.7232 17.4459 20.4568 16.8911 20.4568C16.6679 20.4568 16.5167 20.4708 16.4375 20.4928V21.9256C16.5251 21.946 16.6351 21.9528 16.7791 21.9536L16.8051 21.9544C17.3883 21.9544 17.7479 21.6588 17.7479 21.1692ZM28.4135 9.9452H34.4087L26.4635 2V7.9956C26.4636 8.5127 26.6691 9.00859 27.0348 9.3742C27.4005 9.73981 27.8964 9.9452 28.4135 9.9452Z" fill="#ED1C24"/>
<path opacity="0.6" d="M28.407 9.9452H34.4022L26.457 2V7.9956C26.4571 8.5127 26.6626 9.00859 27.0283 9.3742C27.394 9.73981 27.8899 9.9452 28.407 9.9452Z" fill="white"/>
<path d="M13.9292 23.2593C13.5476 23.2593 13.2812 23.5329 13.2812 23.9289C13.2812 24.3109 13.5476 24.5913 13.9152 24.5913H13.9225C14.3117 24.5913 14.5704 24.3109 14.5704 23.9289C14.5632 23.5257 14.3036 23.2593 13.9292 23.2593ZM18.3145 20.0181C17.9904 19.7517 17.5008 19.6221 16.8232 19.6221C16.1536 19.6221 15.6785 19.6653 15.3396 19.7229V24.5125H16.4273V22.7701C16.5281 22.7921 16.6576 22.7985 16.802 22.7985C17.45 22.7985 18.0117 22.6329 18.3868 22.2873C18.6748 22.0209 18.826 21.6173 18.826 21.1349C18.8264 20.6593 18.6245 20.2561 18.3145 20.0181ZM16.7952 21.9553L16.7693 21.9545C16.6257 21.9537 16.5157 21.9469 16.4277 21.9273V20.4937C16.5069 20.4717 16.6581 20.4577 16.8813 20.4577C17.436 20.4577 17.7389 20.7241 17.7389 21.1709C17.7385 21.6597 17.3784 21.9553 16.7952 21.9553ZM23.0669 20.1261C22.6061 19.7733 22.0013 19.6221 21.0721 19.6221C20.5249 19.6221 19.9988 19.6581 19.596 19.7301V24.4901C19.8624 24.5269 20.2725 24.5629 20.8417 24.5629C21.7925 24.5629 22.5773 24.3613 23.0889 23.9365C23.5497 23.5405 23.888 22.8993 23.888 21.9709C23.888 21.2141 23.6457 20.6561 23.2469 20.2777C23.1897 20.2238 23.1296 20.1732 23.0669 20.1261ZM21.1869 20.4649C22.1377 20.4649 22.7284 20.9613 22.7284 22.0065C22.7284 23.1649 22.0729 23.7133 21.0717 23.7061C20.9421 23.7061 20.7836 23.7061 20.69 23.6841V20.5085C20.784 20.4865 20.9497 20.4649 21.1869 20.4649ZM24.6861 19.6577V24.5121H25.7809V22.5605H27.5232V21.6673H25.7809V20.5585H27.6456V19.6577H24.6861Z" fill="white"/>
</svg>
