<svg width="150" height="150" viewBox="0 0 150 150" fill="none" xmlns="http://www.w3.org/2000/svg">
<rect x="1.125" y="1.125" width="147.75" height="147.75" rx="73.875" fill="white"/>
<rect x="1.125" y="1.125" width="147.75" height="147.75" rx="73.875" stroke="#E3E6E5" stroke-width="2.25" stroke-dasharray="3 3"/>
<path opacity="0.3" d="M33.4947 61.62H36.6727C39.5847 61.62 41.1527 63.65 41.1527 66.212C41.1527 68.914 39.5707 71 36.6167 71H33.4947V61.62ZM36.5607 69.908C38.8287 69.908 39.8927 68.34 39.8927 66.24C39.8927 64.28 38.8847 62.712 36.5887 62.712H34.7127V69.908H36.5607ZM42.9507 63.944H44.1267V65.694H44.1547C44.4487 64.644 45.1907 63.846 46.2547 63.846C46.5207 63.846 46.7167 63.86 46.9547 63.916V65.12C46.6607 65.036 46.4227 65.022 46.1707 65.022C45.1627 65.022 44.1407 65.834 44.1407 67.724V71H42.9507V63.944ZM47.6567 69.264C47.6567 67.402 49.5327 67.01 52.0667 66.954V66.38C52.0667 65.33 51.6187 64.826 50.5967 64.826C49.7147 64.826 49.0847 65.288 49.0847 66.128C49.0847 66.212 49.0847 66.282 49.0987 66.38H47.9787C47.9647 66.268 47.9647 66.212 47.9647 66.128C47.9647 64.742 49.0707 63.804 50.6527 63.804C52.3607 63.804 53.2567 64.714 53.2567 66.394V68.97C53.2567 69.852 53.3687 70.09 53.7047 70.09C53.8167 70.09 53.9287 70.076 54.0267 70.02V70.93C53.9007 71.014 53.5927 71.098 53.3127 71.098C52.4307 71.098 52.1647 70.776 52.1087 69.852H52.0807C51.7027 70.636 50.9327 71.14 49.7987 71.14C48.4547 71.14 47.6567 70.454 47.6567 69.264ZM52.0667 68.732V67.794C49.9527 67.822 48.8747 68.144 48.8747 69.138C48.8747 69.824 49.2807 70.188 50.1487 70.188C50.9467 70.188 51.7167 69.726 52.0667 68.732ZM61.5105 64.042C60.9645 64 60.5305 64.056 60.1385 64.532C60.5865 64.966 60.8245 65.582 60.8245 66.282C60.8245 67.808 59.7185 68.788 57.9685 68.788C57.4365 68.788 56.9745 68.704 56.5825 68.536C56.3445 68.718 56.1625 68.97 56.1625 69.236C56.1625 69.684 56.4145 69.852 56.9605 69.852H59.2005C60.6425 69.852 61.4965 70.496 61.4965 71.672C61.4965 73.142 60.0405 74.178 57.8705 74.178C55.7845 74.178 54.5945 73.422 54.5945 72.26C54.5945 71.406 55.1125 70.944 55.8685 70.65V70.622C55.4205 70.468 55.1125 70.09 55.1125 69.474C55.1125 68.858 55.4905 68.452 56.0085 68.2C55.4625 67.766 55.1685 67.108 55.1685 66.338C55.1685 64.798 56.2885 63.804 58.0385 63.804C58.6545 63.804 59.1725 63.93 59.5925 64.14C59.9705 63.426 60.5305 62.95 61.3145 62.964C61.3705 62.964 61.4545 62.964 61.5105 62.978V64.042ZM57.9825 67.836C58.9905 67.836 59.6625 67.248 59.6625 66.31C59.6625 65.372 59.0325 64.756 58.0245 64.756C57.0025 64.756 56.3305 65.372 56.3305 66.31C56.3305 67.248 56.9605 67.836 57.9825 67.836ZM56.6245 70.944C56.1065 71.154 55.7845 71.56 55.7845 72.022C55.7845 72.736 56.3445 73.17 57.8565 73.17C59.4665 73.17 60.2785 72.54 60.2785 71.826C60.2785 71.378 60.0545 70.944 59.1305 70.944H56.6245ZM67.3535 60.374H68.3895L63.1815 72.54H62.1315L67.3535 60.374ZM69.0701 67.976H70.3021C70.2741 69.544 71.1561 70.076 72.6401 70.076C74.0821 70.076 74.7681 69.474 74.7681 68.536C74.7681 67.43 73.9701 67.108 72.4161 66.8C70.3581 66.408 69.2101 65.778 69.2101 64.07C69.2101 62.376 70.6101 61.452 72.4581 61.452C74.4601 61.452 75.9161 62.474 75.8601 64.49H74.6281C74.6561 63.146 73.8581 62.544 72.4161 62.544C71.2121 62.544 70.4561 63.104 70.4561 63.972C70.4561 65.078 71.2541 65.4 72.8081 65.708C74.8661 66.1 76.0141 66.73 76.0141 68.438C76.0141 70.048 74.7681 71.168 72.5981 71.168C70.3861 71.168 68.9861 70.118 69.0701 67.976ZM83.595 67.22C83.595 67.374 83.581 67.57 83.567 67.752H78.695C78.723 69.292 79.465 70.118 80.683 70.118C81.817 70.118 82.335 69.404 82.419 68.69H83.525C83.441 69.95 82.461 71.14 80.669 71.14C78.709 71.14 77.477 69.824 77.477 67.486C77.477 65.148 78.863 63.804 80.599 63.804C82.433 63.804 83.595 65.092 83.595 67.22ZM80.599 64.798C79.619 64.798 78.863 65.498 78.723 66.856H82.419C82.335 65.456 81.607 64.798 80.599 64.798ZM85.3335 60.92H86.5235V71H85.3335V60.92ZM94.3821 67.22C94.3821 67.374 94.3681 67.57 94.3541 67.752H89.4821C89.5101 69.292 90.2521 70.118 91.4701 70.118C92.6041 70.118 93.1221 69.404 93.2061 68.69H94.3121C94.2281 69.95 93.2481 71.14 91.4561 71.14C89.4961 71.14 88.2641 69.824 88.2641 67.486C88.2641 65.148 89.6501 63.804 91.3861 63.804C93.2201 63.804 94.3821 65.092 94.3821 67.22ZM91.3861 64.798C90.4061 64.798 89.6501 65.498 89.5101 66.856H93.2061C93.1221 65.456 92.3941 64.798 91.3861 64.798ZM95.7426 67.542C95.7426 65.162 97.1566 63.804 98.9486 63.804C100.783 63.804 101.805 65.106 101.833 66.59H100.643C100.601 65.708 100.097 64.826 98.9486 64.826C97.8006 64.826 96.9606 65.806 96.9606 67.514C96.9606 69.18 97.7866 70.118 98.9206 70.118C100.027 70.118 100.489 69.376 100.643 68.368H101.833C101.665 69.978 100.727 71.14 98.9066 71.14C97.0866 71.14 95.7426 69.852 95.7426 67.542ZM103.921 69.18V64.966H102.927V63.986H103.347C103.879 63.986 104.005 63.832 104.005 63.118V61.62H105.111V63.944H107.015V64.966H105.111V68.97C105.111 69.866 105.391 70.118 106.077 70.118C106.441 70.118 106.735 70.034 107.015 69.908V70.902C106.749 71.028 106.329 71.14 105.797 71.14C104.467 71.14 103.921 70.594 103.921 69.18ZM111.122 69.264C111.122 67.402 112.998 67.01 115.532 66.954V66.38C115.532 65.33 115.084 64.826 114.062 64.826C113.18 64.826 112.55 65.288 112.55 66.128C112.55 66.212 112.55 66.282 112.564 66.38H111.444C111.43 66.268 111.43 66.212 111.43 66.128C111.43 64.742 112.536 63.804 114.118 63.804C115.826 63.804 116.722 64.714 116.722 66.394V68.97C116.722 69.852 116.834 70.09 117.17 70.09C117.282 70.09 117.394 70.076 117.492 70.02V70.93C117.366 71.014 117.058 71.098 116.778 71.098C115.896 71.098 115.63 70.776 115.574 69.852H115.546C115.168 70.636 114.398 71.14 113.264 71.14C111.92 71.14 111.122 70.454 111.122 69.264ZM115.532 68.732V67.794C113.418 67.822 112.34 68.144 112.34 69.138C112.34 69.824 112.746 70.188 113.614 70.188C114.412 70.188 115.182 69.726 115.532 68.732ZM58.0972 78.62H61.3732C63.3332 78.62 64.5512 79.698 64.5512 81.588C64.5512 83.492 63.2912 84.64 61.3032 84.64H59.3152V88H58.0972V78.62ZM61.2752 83.548C62.5492 83.548 63.2912 82.82 63.2912 81.616C63.2912 80.412 62.5492 79.712 61.2752 79.712H59.3152V83.548H61.2752ZM69.6867 80.804C71.0307 80.804 71.9127 81.658 71.9127 83.282V88H70.7227V83.562C70.7227 82.344 70.2187 81.854 69.2667 81.854C68.1607 81.854 67.3487 82.89 67.3487 84.388V88H66.1587V77.92H67.3487V80.944C67.3487 81.434 67.3347 81.91 67.3207 82.4H67.3487C67.5727 81.574 68.3567 80.804 69.6867 80.804ZM73.5464 84.514C73.5464 82.134 74.9884 80.804 76.7944 80.804C78.6424 80.804 80.0144 82.106 80.0144 84.458C80.0144 86.782 78.5864 88.14 76.7804 88.14C74.9324 88.14 73.5464 86.824 73.5464 84.514ZM78.7964 84.486C78.7964 82.778 77.9564 81.826 76.7944 81.826C75.6184 81.826 74.7644 82.82 74.7644 84.486C74.7644 86.18 75.6184 87.118 76.7804 87.118C77.9564 87.118 78.7964 86.152 78.7964 84.486ZM82.0256 86.18V81.966H81.0316V80.986H81.4516C81.9836 80.986 82.1096 80.832 82.1096 80.118V78.62H83.2156V80.944H85.1196V81.966H83.2156V85.97C83.2156 86.866 83.4956 87.118 84.1816 87.118C84.5456 87.118 84.8396 87.034 85.1196 86.908V87.902C84.8536 88.028 84.4336 88.14 83.9016 88.14C82.5716 88.14 82.0256 87.594 82.0256 86.18ZM86.0424 84.514C86.0424 82.134 87.4844 80.804 89.2904 80.804C91.1384 80.804 92.5104 82.106 92.5104 84.458C92.5104 86.782 91.0824 88.14 89.2764 88.14C87.4284 88.14 86.0424 86.824 86.0424 84.514ZM91.2924 84.486C91.2924 82.778 90.4524 81.826 89.2904 81.826C88.1144 81.826 87.2604 82.82 87.2604 84.486C87.2604 86.18 88.1144 87.118 89.2764 87.118C90.4524 87.118 91.2924 86.152 91.2924 84.486Z" fill="#202B3B"/>
</svg>
