<svg width="16" height="16" viewBox="0 0 16 16" fill="none" xmlns="http://www.w3.org/2000/svg">
<path d="M14.5 6.27503V9.72503C14.5 10.1229 14.342 10.5044 14.0607 10.7857C13.7794 11.067 13.3978 11.225 13 11.225H7.27C7.13739 11.225 7.01021 11.1724 6.91645 11.0786C6.82268 10.9848 6.77 10.8576 6.77 10.725C6.77 10.5924 6.82268 10.4652 6.91645 10.3715C7.01021 10.2777 7.13739 10.225 7.27 10.225H13C13.1326 10.225 13.2598 10.1724 13.3536 10.0786C13.4473 9.98482 13.5 9.85764 13.5 9.72503V6.27503C13.5 6.14242 13.4473 6.01525 13.3536 5.92148C13.2598 5.82771 13.1326 5.77503 13 5.77503H7.27C7.13739 5.77503 7.01021 5.72235 6.91645 5.62858C6.82268 5.53482 6.77 5.40764 6.77 5.27503C6.77 5.14242 6.82268 5.01525 6.91645 4.92148C7.01021 4.82771 7.13739 4.77503 7.27 4.77503H13C13.3978 4.77503 13.7794 4.93307 14.0607 5.21437C14.342 5.49567 14.5 5.87721 14.5 6.27503ZM3.27 10.225H3C2.86739 10.225 2.74021 10.1724 2.64645 10.0786C2.55268 9.98482 2.5 9.85764 2.5 9.72503V6.27503C2.5 6.14242 2.55268 6.01525 2.64645 5.92148C2.74021 5.82771 2.86739 5.77503 3 5.77503H3.27C3.40261 5.77503 3.52979 5.72235 3.62355 5.62858C3.71732 5.53482 3.77 5.40764 3.77 5.27503C3.77 5.14242 3.71732 5.01525 3.62355 4.92148C3.52979 4.82771 3.40261 4.77503 3.27 4.77503H3C2.60218 4.77503 2.22064 4.93307 1.93934 5.21437C1.65804 5.49567 1.5 5.87721 1.5 6.27503V9.72503C1.5 10.1229 1.65804 10.5044 1.93934 10.7857C2.22064 11.067 2.60218 11.225 3 11.225H3.27C3.40261 11.225 3.52979 11.1724 3.62355 11.0786C3.71732 10.9848 3.77 10.8576 3.77 10.725C3.77 10.5924 3.71732 10.4652 3.62355 10.3715C3.52979 10.2777 3.40261 10.225 3.27 10.225ZM6.3055 12.1315C6.16356 12.1314 6.02748 12.0749 5.92717 11.9745C5.82685 11.8741 5.7705 11.738 5.7705 11.596V4.40403C5.7705 4.26209 5.82685 4.12596 5.92717 4.02555C6.02748 3.92514 6.16356 3.86866 6.3055 3.86853C6.43811 3.86853 6.56529 3.81585 6.65905 3.72208C6.75282 3.62832 6.8055 3.50114 6.8055 3.36853C6.8055 3.23592 6.75282 3.10875 6.65905 3.01498C6.56529 2.92121 6.43811 2.86853 6.3055 2.86853C5.92115 2.86964 5.55137 3.0157 5.27 3.27753C4.98871 3.01557 4.61888 2.86949 4.2345 2.86853C4.10189 2.86853 3.97471 2.92121 3.88095 3.01498C3.78718 3.10875 3.7345 3.23592 3.7345 3.36853C3.7345 3.50114 3.78718 3.62832 3.88095 3.72208C3.97471 3.81585 4.10189 3.86853 4.2345 3.86853C4.37657 3.86853 4.51283 3.92493 4.61333 4.02534C4.71384 4.12576 4.77037 4.26196 4.7705 4.40403V11.596C4.77037 11.7381 4.71384 11.8743 4.61333 11.9747C4.51283 12.0751 4.37657 12.1315 4.2345 12.1315C4.10189 12.1315 3.97471 12.1842 3.88095 12.278C3.78718 12.3717 3.7345 12.4989 3.7345 12.6315C3.7345 12.7641 3.78718 12.8913 3.88095 12.9851C3.97471 13.0789 4.10189 13.1315 4.2345 13.1315C4.61888 13.1306 4.98871 12.9845 5.27 12.7225C5.55137 12.9844 5.92115 13.1304 6.3055 13.1315C6.43811 13.1315 6.56529 13.0789 6.65905 12.9851C6.75282 12.8913 6.8055 12.7641 6.8055 12.6315C6.8055 12.4989 6.75282 12.3717 6.65905 12.278C6.56529 12.1842 6.43811 12.1315 6.3055 12.1315Z" fill="#3C3C3C"/>
</svg>
