<svg width="24" height="21" viewBox="0 0 24 21" fill="none" xmlns="http://www.w3.org/2000/svg">
<path d="M17.8041 20.0393H0.847815C0.379398 20.0393 0 19.6599 0 19.1914V6.5734C0 6.10498 0.379398 5.72559 0.847815 5.72559H17.8041C18.2725 5.72559 18.6519 6.10498 18.6519 6.5734V19.1914C18.6519 19.6599 18.2725 20.0393 17.8041 20.0393Z" fill="#C5DBF9"/>
<path d="M10.8736 10.5568L8.03541 9.1377C7.84525 9.0429 7.625 9.18255 7.625 9.39201V12.2302C7.625 12.3855 7.75102 12.5141 7.90882 12.5141C8.00476 12.5141 7.76748 12.618 10.8736 11.0649C11.0823 10.9601 11.0825 10.6616 10.8736 10.5568Z" fill="#2873EA"/>
<path d="M17.8041 20.0394H0.847815C0.379398 20.0394 0 19.66 0 19.1916V15.4756H18.6519V19.1916C18.6519 19.66 18.2725 20.0394 17.8041 20.0394Z" fill="#F3F9FF"/>
<path d="M16.5321 18.0177H2.11922C1.88522 18.0177 1.69531 17.8283 1.69531 17.5938C1.69531 17.3594 1.88522 17.1699 2.11922 17.1699H16.5321C16.7661 17.1699 16.956 17.3594 16.956 17.5938C16.956 17.8283 16.7661 18.0177 16.5321 18.0177Z" fill="#C5DBF9"/>
<path d="M3.39266 18.4407C3.15866 18.4407 2.96875 18.2513 2.96875 18.0168V17.169C2.96875 16.9346 3.15866 16.7451 3.39266 16.7451C3.62665 16.7451 3.81657 16.9346 3.81657 17.169V18.0168C3.81657 18.2513 3.62665 18.4407 3.39266 18.4407Z" fill="#2873EA"/>
<path d="M22.8415 6.36477L23.8794 7.53785C24.0136 7.68996 24.0358 7.91036 23.9341 8.08555L23.0176 9.67117C22.9164 9.84635 22.7143 9.93724 22.5156 9.89674L20.9841 9.58357C20.7506 9.53601 20.5184 9.67022 20.443 9.89627L19.9476 11.3821C19.8836 11.5742 19.7037 11.7037 19.5012 11.7037L17.6683 11.7037C17.4653 11.7037 17.2855 11.5742 17.2214 11.3821L16.726 9.89627C16.6506 9.67022 16.4185 9.536 16.1849 9.58357L14.6534 9.89674C14.4547 9.93724 14.2527 9.84635 14.1514 9.67116L13.235 8.08554C13.1337 7.91035 13.1559 7.68995 13.2901 7.53784L14.3275 6.36476C14.4853 6.18675 14.4853 5.91879 14.3275 5.74078L13.2901 4.56769C13.1559 4.41558 13.1337 4.19518 13.235 4.02L14.1514 2.43437C14.2527 2.25919 14.4552 2.1683 14.6534 2.2088L16.1849 2.52197C16.4185 2.56953 16.6506 2.43532 16.726 2.20927L17.2214 0.723487C17.2855 0.531348 17.4654 0.401371 17.6683 0.401371L19.5012 0.401373C19.7037 0.401373 19.8836 0.53135 19.9476 0.72349L20.4431 2.20928C20.5184 2.43532 20.7506 2.56954 20.9841 2.52197L22.5156 2.20881C22.7143 2.16831 22.9164 2.2592 23.0176 2.43438L23.9341 4.02001C24.0358 4.19519 24.0136 4.41559 23.8794 4.5677L22.8415 5.74078C22.6837 5.91879 22.6837 6.18675 22.8415 6.36477Z" fill="#2873EA"/>
<path d="M21.409 6.05214C21.409 7.61281 20.1441 8.87773 18.5834 8.87773C17.0227 8.87773 15.7578 7.61281 15.7578 6.05214C15.7578 4.49148 17.0227 3.22656 18.5834 3.22656C20.1441 3.22656 21.409 4.49148 21.409 6.05214Z" fill="#F8F9F9"/>
<g clip-path="url(#clip0_1859_11942)">
<path d="M18.625 7.30805V4.7666" stroke="#2873EA" stroke-width="0.739332" stroke-linecap="round" stroke-linejoin="round"/>
<path d="M19.6641 5.80629L18.6244 4.7666L17.5847 5.80629" stroke="#2873EA" stroke-width="0.739332" stroke-linecap="round" stroke-linejoin="round"/>
</g>
<defs>
<clipPath id="clip0_1859_11942">
<rect width="3.69666" height="3.69666" fill="white" transform="matrix(0 1 -1 0 20.4727 4.18945)"/>
</clipPath>
</defs>
</svg>
