<svg width="16" height="17" viewBox="0 0 16 17" fill="none" xmlns="http://www.w3.org/2000/svg">
<path d="M8 10.5C8.39556 10.5 8.78224 10.3827 9.11114 10.1629C9.44004 9.94318 9.69638 9.63082 9.84776 9.26537C9.99913 8.89992 10.0387 8.49778 9.96157 8.10982C9.8844 7.72186 9.69392 7.36549 9.41421 7.08579C9.13451 6.80608 8.77814 6.6156 8.39018 6.53843C8.00222 6.46126 7.60009 6.50087 7.23463 6.65224C6.86918 6.80362 6.55682 7.05996 6.33706 7.38886C6.1173 7.71776 6 8.10444 6 8.5C6 9.03043 6.21071 9.53914 6.58579 9.91421C6.96086 10.2893 7.46957 10.5 8 10.5ZM8 7.5C8.19778 7.5 8.39112 7.55865 8.55557 7.66853C8.72002 7.77841 8.84819 7.93459 8.92388 8.11732C8.99957 8.30004 9.01937 8.50111 8.98079 8.69509C8.9422 8.88907 8.84696 9.06726 8.70711 9.20711C8.56725 9.34696 8.38907 9.4422 8.19509 9.48079C8.00111 9.51937 7.80004 9.49957 7.61732 9.42388C7.43459 9.34819 7.27841 9.22002 7.16853 9.05557C7.05865 8.89112 7 8.69778 7 8.5C7 8.23478 7.10536 7.98043 7.29289 7.79289C7.48043 7.60536 7.73478 7.5 8 7.5Z" fill="black"/>
<path d="M3.29257 8.905L3.10257 9C2.75897 9.19874 2.50815 9.52556 2.40506 9.90887C2.30197 10.2922 2.35501 10.7007 2.55257 11.045L3.05257 11.915C3.14803 12.0887 3.27699 12.2418 3.43198 12.3654C3.58697 12.489 3.76493 12.5807 3.95556 12.6351C4.14618 12.6895 4.3457 12.7055 4.54258 12.6823C4.73946 12.6592 4.92979 12.5972 5.10257 12.5L5.25757 12.415C5.33358 12.3711 5.4198 12.348 5.50757 12.348C5.59533 12.348 5.68156 12.3711 5.75757 12.415C5.83077 12.4584 5.89169 12.5197 5.93456 12.5932C5.97743 12.6667 6.00084 12.7499 6.00257 12.835V13C6.00257 13.3978 6.1606 13.7794 6.44191 14.0607C6.72321 14.342 7.10474 14.5 7.50257 14.5H8.50257C8.90039 14.5 9.28192 14.342 9.56323 14.0607C9.84453 13.7794 10.0026 13.3978 10.0026 13V12.815C10.0048 12.7294 10.029 12.6459 10.0727 12.5724C10.1165 12.4988 10.1784 12.4378 10.2526 12.395C10.3286 12.3511 10.4148 12.328 10.5026 12.328C10.5903 12.328 10.6766 12.3511 10.7526 12.395L10.9076 12.485C11.2517 12.6846 11.661 12.7392 12.0454 12.637C12.4299 12.5348 12.758 12.2841 12.9576 11.94L13.4576 11.07C13.5889 10.8419 13.6579 10.5832 13.6576 10.32C13.6598 10.0517 13.59 9.78765 13.4554 9.55548C13.3209 9.32331 13.1265 9.13148 12.8926 9L12.7026 8.885C12.6321 8.84348 12.5736 8.78428 12.533 8.71325C12.4924 8.64222 12.4711 8.56182 12.4711 8.48C12.4711 8.39818 12.4924 8.31778 12.533 8.24675C12.5736 8.17572 12.6321 8.11652 12.7026 8.075L12.8926 7.96C13.2362 7.76126 13.487 7.43444 13.5901 7.05113C13.6932 6.66782 13.6401 6.25928 13.4426 5.915L12.9426 5.045C12.743 4.7009 12.4149 4.45017 12.0304 4.34796C11.646 4.24576 11.2367 4.30045 10.8926 4.5L10.7326 4.59C10.6587 4.62954 10.5761 4.64988 10.4923 4.64916C10.4085 4.64843 10.3262 4.62665 10.253 4.58583C10.1799 4.54501 10.1181 4.48645 10.0735 4.41554C10.0288 4.34463 10.0027 4.26363 9.99757 4.18V4C9.99757 3.60218 9.83953 3.22064 9.55823 2.93934C9.27692 2.65804 8.89539 2.5 8.49757 2.5H7.49757C7.09974 2.5 6.71821 2.65804 6.4369 2.93934C6.1556 3.22064 5.99757 3.60218 5.99757 4V4.18C5.99609 4.26606 5.97241 4.35028 5.92884 4.42452C5.88527 4.49875 5.82327 4.56047 5.74885 4.60372C5.67443 4.64696 5.5901 4.67026 5.50403 4.67137C5.41796 4.67247 5.33307 4.65133 5.25757 4.61L5.10257 4.5C4.75844 4.30045 4.34914 4.24576 3.9647 4.34796C3.58026 4.45017 3.25216 4.7009 3.05257 5.045L2.55257 5.915C2.44842 6.08713 2.37996 6.27845 2.35127 6.47758C2.32258 6.6767 2.33424 6.87957 2.38555 7.0741C2.43687 7.26863 2.52679 7.45085 2.64997 7.60991C2.77315 7.76898 2.92707 7.90164 3.10257 8L3.29257 8.115C3.36307 8.15652 3.42151 8.21572 3.46212 8.28675C3.50272 8.35778 3.52408 8.43818 3.52408 8.52C3.52408 8.60182 3.50272 8.68222 3.46212 8.75325C3.42151 8.82428 3.36307 8.88348 3.29257 8.925V8.905ZM3.60257 9.905L3.79257 9.79C4.0146 9.66058 4.19883 9.4752 4.32687 9.25236C4.45491 9.02952 4.5223 8.77701 4.5223 8.52C4.5223 8.26299 4.45491 8.01048 4.32687 7.78764C4.19883 7.5648 4.0146 7.37942 3.79257 7.25L3.60257 7.135C3.54518 7.10222 3.49487 7.05838 3.45453 7.00603C3.41419 6.95368 3.38464 6.89385 3.36757 6.83C3.33447 6.70328 3.35243 6.56863 3.41757 6.455L3.91757 5.585C3.95065 5.52812 3.99463 5.47834 4.04699 5.43849C4.09935 5.39865 4.15906 5.36953 4.2227 5.35281C4.28634 5.33608 4.35265 5.33209 4.41783 5.34104C4.48302 5.35 4.5458 5.37173 4.60257 5.405L4.75757 5.495C4.98651 5.62485 5.24558 5.69218 5.50878 5.69022C5.77197 5.68826 6.03002 5.61708 6.25699 5.48383C6.48397 5.35058 6.6719 5.15995 6.80189 4.93109C6.93188 4.70223 6.99937 4.4432 6.99757 4.18V4C6.99757 3.86739 7.05024 3.74021 7.14401 3.64645C7.23778 3.55268 7.36496 3.5 7.49757 3.5H8.49757C8.63017 3.5 8.75735 3.55268 8.85112 3.64645C8.94489 3.74021 8.99757 3.86739 8.99757 4V4.18C8.99538 4.44289 9.06234 4.70174 9.19171 4.93061C9.32109 5.15947 9.50834 5.35031 9.73471 5.48401C9.96108 5.6177 10.2186 5.68955 10.4815 5.69236C10.7444 5.69517 11.0034 5.62883 11.2326 5.5L11.3926 5.405C11.4493 5.37173 11.5121 5.35 11.5773 5.34104C11.6425 5.33209 11.7088 5.33608 11.7724 5.35281C11.8361 5.36953 11.8958 5.39865 11.9481 5.43849C12.0005 5.47834 12.0445 5.52812 12.0776 5.585L12.5776 6.455C12.6427 6.56863 12.6607 6.70328 12.6276 6.83C12.6105 6.89385 12.5809 6.95368 12.5406 7.00603C12.5003 7.05838 12.4499 7.10222 12.3926 7.135L12.2026 7.25C11.9805 7.37942 11.7963 7.5648 11.6683 7.78764C11.5402 8.01048 11.4728 8.26299 11.4728 8.52C11.4728 8.77701 11.5402 9.02952 11.6683 9.25236C11.7963 9.4752 11.9805 9.66058 12.2026 9.79L12.3926 9.905C12.4499 9.93778 12.5003 9.98162 12.5406 10.034C12.5809 10.0863 12.6105 10.1462 12.6276 10.21C12.6607 10.3367 12.6427 10.4714 12.5776 10.585L12.0776 11.455C12.0445 11.5119 12.0005 11.5617 11.9481 11.6015C11.8958 11.6414 11.8361 11.6705 11.7724 11.6872C11.7088 11.7039 11.6425 11.7079 11.5773 11.699C11.5121 11.69 11.4493 11.6683 11.3926 11.635L11.2376 11.545C11.0095 11.4133 10.7509 11.344 10.4876 11.344C10.2243 11.344 9.96559 11.4133 9.73757 11.545C9.51561 11.6754 9.33095 11.8607 9.20135 12.0831C9.07174 12.3056 9.00157 12.5576 8.99757 12.815V13C8.99757 13.1326 8.94489 13.2598 8.85112 13.3536C8.75735 13.4473 8.63017 13.5 8.49757 13.5H7.49757C7.36496 13.5 7.23778 13.4473 7.14401 13.3536C7.05024 13.2598 6.99757 13.1326 6.99757 13V12.82C6.99587 12.5585 6.92583 12.302 6.79441 12.0759C6.66299 11.8498 6.47475 11.662 6.24835 11.5311C6.02196 11.4003 5.76528 11.3308 5.50378 11.3298C5.24227 11.3287 4.98503 11.396 4.75757 11.525L4.60257 11.615C4.5458 11.6483 4.48302 11.67 4.41783 11.679C4.35265 11.6879 4.28634 11.6839 4.2227 11.6672C4.15906 11.6505 4.09935 11.6214 4.04699 11.5815C3.99463 11.5417 3.95065 11.4919 3.91757 11.435L3.41757 10.565C3.35243 10.4514 3.33447 10.3167 3.36757 10.19C3.38464 10.1262 3.41419 10.0663 3.45453 10.014C3.49487 9.96162 3.54518 9.91779 3.60257 9.885V9.905Z" fill="black"/>
</svg>
