<svg width="24" height="24" viewBox="0 0 24 24" fill="none" xmlns="http://www.w3.org/2000/svg">
<path d="M11.097 2.38888V17.4485C11.097 18.1025 10.5619 18.6377 9.90837 18.6377H1.18867C0.535163 18.6377 0 18.1025 0 17.4485V2.38888C0 1.73484 0.535163 1.2002 1.18867 1.2002H9.90837C10.5619 1.2002 11.097 1.73484 11.097 2.38888Z" fill="#C5DBF9"/>
<path d="M1.1875 17.0514V2.78406C1.1875 2.56518 1.36501 2.38818 1.5839 2.38818H9.50976C9.72864 2.38818 9.90615 2.56518 9.90615 2.78406V17.0514C9.90615 17.2703 9.72864 17.4483 9.50976 17.4483H1.5839C1.36501 17.4483 1.1875 17.2703 1.1875 17.0514Z" fill="#F3F9FF"/>
<path d="M6.81613 3.18099H4.28066C3.88635 3.18099 3.56641 2.86104 3.56641 2.46673V2.38818H7.53038V2.46673C7.53038 2.86104 7.21044 3.18099 6.81613 3.18099Z" fill="#C5DBF9"/>
<path d="M23.9994 6.74483V21.8044C23.9994 22.4585 23.4642 22.9936 22.8107 22.9936H14.091C13.4375 22.9936 12.9023 22.4585 12.9023 21.8044V6.74483C12.9023 6.0908 13.4375 5.55615 14.091 5.55615H22.8107C23.4642 5.55615 23.9994 6.0908 23.9994 6.74483Z" fill="#C5DBF9"/>
<path d="M14.0898 21.4073V7.14002C14.0898 6.92113 14.2674 6.74414 14.4862 6.74414H22.4121C22.631 6.74414 22.8085 6.92113 22.8085 7.14002V21.4073C22.8085 21.6262 22.631 21.8043 22.4121 21.8043H14.4862C14.2674 21.8043 14.0898 21.6262 14.0898 21.4073Z" fill="#F3F9FF"/>
<path d="M19.7185 7.53694H17.183C16.7887 7.53694 16.4688 7.21699 16.4688 6.82269V6.74414H20.4327V6.82269C20.4327 7.21699 20.1128 7.53694 19.7185 7.53694Z" fill="#C5DBF9"/>
<path d="M14.5728 16.8099H9.33635C8.75772 16.8099 8.28906 16.3413 8.28906 15.7626V8.43157C8.28906 7.85294 8.75772 7.38428 9.33635 7.38428H13.6156C13.8931 7.38428 14.1596 7.49477 14.356 7.69114L15.3132 8.64836C15.5096 8.84473 15.6201 9.11127 15.6201 9.3888V15.7626C15.6201 16.3413 15.1514 16.8099 14.5728 16.8099Z" fill="#2873EA"/>
<path d="M9.78906 10.5446C9.78906 10.5446 11.1815 10.5423 11.9647 10.541" stroke="#F3F9FF" stroke-width="1.04729" stroke-linecap="round"/>
<path d="M9.78906 12.6394C9.78906 12.6394 12.1196 12.637 13.3356 12.6357" stroke="#F3F9FF" stroke-width="1.04729" stroke-linecap="round"/>
<path d="M9.78906 14.6289C9.78906 14.6289 12.4069 14.6262 13.5413 14.625" stroke="#F3F9FF" stroke-width="1.04729" stroke-linecap="round"/>
</svg>
