<svg width="20" height="20" viewBox="0 0 20 20" fill="none" xmlns="http://www.w3.org/2000/svg">
<path d="M8.72856 16.1479C8.4409 16.1474 8.16206 16.0486 7.93822 15.8679L4.72373 13.2962H2.64787C2.31143 13.2959 1.98888 13.162 1.75098 12.9241C1.51308 12.6862 1.37927 12.3637 1.37891 12.0273V7.97208C1.37891 7.27208 1.94787 6.70312 2.64787 6.70312H4.72373L7.93822 4.13139C8.12428 3.98104 8.34931 3.88679 8.58699 3.85968C8.82466 3.83256 9.06514 3.87371 9.28029 3.97829C9.72442 4.19208 9.9996 4.63001 9.9996 5.12243V14.8776C9.9996 15.37 9.72442 15.8079 9.28029 16.0211C9.10373 16.1059 8.91477 16.1479 8.72856 16.1479ZM2.75822 11.9169H4.96511C5.12166 11.9169 5.27339 11.97 5.39615 12.0679L8.62029 14.6473V5.35208L5.39615 7.93139C5.27377 8.02919 5.12177 8.08245 4.96511 8.08243H2.75822V11.9169ZM13.6568 14.3466C13.5203 14.3469 13.3868 14.3066 13.2732 14.2309C13.1596 14.1551 13.071 14.0474 13.0188 13.9212C12.9665 13.7951 12.953 13.6563 12.9797 13.5224C13.0065 13.3885 13.0725 13.2656 13.1693 13.1693C14.0037 12.3355 14.4824 11.1797 14.4824 9.99967C14.4824 8.81967 14.0037 7.66381 13.1693 6.83001C13.1052 6.76598 13.0544 6.68997 13.0198 6.60631C12.9851 6.52265 12.9673 6.43298 12.9673 6.34243C12.9673 6.25188 12.9851 6.16221 13.0198 6.07855C13.0544 5.99489 13.1052 5.91887 13.1693 5.85484C13.2333 5.79081 13.3093 5.74002 13.393 5.70537C13.4766 5.67071 13.5663 5.65288 13.6568 5.65288C13.7474 5.65288 13.8371 5.67071 13.9207 5.70537C14.0044 5.74002 14.0804 5.79081 14.1444 5.85484C15.2355 6.94519 15.8617 8.45622 15.8617 9.99967C15.8617 11.5431 15.2355 13.0542 14.1444 14.1445C14.0806 14.2088 14.0046 14.2597 13.9209 14.2944C13.8372 14.3291 13.7474 14.3468 13.6568 14.3466Z" fill="#929292"/>
<path d="M15.6085 16.2979C15.4719 16.2982 15.3384 16.2579 15.2248 16.1822C15.1112 16.1065 15.0227 15.9987 14.9704 15.8726C14.9182 15.7464 14.9046 15.6076 14.9314 15.4738C14.9582 15.3399 15.0241 15.217 15.1209 15.1207C16.4685 13.7724 17.2416 11.9062 17.2416 9.99998C17.2416 8.09377 16.4685 6.22756 15.1209 4.87929C15.0568 4.81525 15.0061 4.73924 14.9714 4.65558C14.9368 4.57192 14.9189 4.48225 14.9189 4.3917C14.9189 4.30115 14.9368 4.21148 14.9714 4.12782C15.0061 4.04416 15.0568 3.96814 15.1209 3.90411C15.1849 3.84008 15.2609 3.78929 15.3446 3.75464C15.4282 3.71998 15.5179 3.70215 15.6085 3.70215C15.699 3.70215 15.7887 3.71998 15.8723 3.75464C15.956 3.78929 16.032 3.84008 16.0961 3.90411C17.7009 5.50894 18.6209 7.73032 18.6209 9.99998C18.6209 12.2696 17.7009 14.491 16.0961 16.0958C16.0321 16.16 15.9561 16.2108 15.8724 16.2455C15.7887 16.2802 15.699 16.298 15.6085 16.2979ZM11.7071 12.3965C11.5707 12.3965 11.4374 12.356 11.324 12.2803C11.2106 12.2045 11.1223 12.0968 11.0701 11.9708C11.0179 11.8448 11.0042 11.7061 11.0308 11.5724C11.0574 11.4386 11.1231 11.3157 11.2195 11.2193C11.5402 10.8986 11.7243 10.4538 11.7243 9.99998C11.7243 9.54618 11.5402 9.10136 11.2195 8.78067C11.0903 8.65113 11.0178 8.47566 11.0178 8.29273C11.0178 8.10981 11.0903 7.93434 11.2195 7.8048C11.349 7.67564 11.5245 7.60311 11.7074 7.60311C11.8904 7.60311 12.0658 7.67564 12.1954 7.8048C12.7726 8.38342 13.1036 9.18342 13.1036 9.99998C13.1036 10.8165 12.7726 11.6165 12.1954 12.1945C12.1312 12.2586 12.0551 12.3094 11.9713 12.3441C11.8875 12.3787 11.7978 12.3966 11.7071 12.3965Z" fill="#929292"/>
</svg>
