<svg width="16" height="16" viewBox="0 0 16 16" fill="none" xmlns="http://www.w3.org/2000/svg">
<path d="M14.0384 0.600098H1.64844C1.25061 0.600098 0.869082 0.758133 0.587777 1.03944C0.306473 1.32074 0.148438 1.70227 0.148438 2.1001V11.2101C0.148437 11.6079 0.306473 11.9895 0.587777 12.2708C0.869082 12.5521 1.25061 12.7101 1.64844 12.7101H6.24344V15.0001H4.39344C4.26083 15.0001 4.13365 15.0528 4.03988 15.1465C3.94612 15.2403 3.89344 15.3675 3.89344 15.5001C3.89344 15.6327 3.94612 15.7599 4.03988 15.8537C4.13365 15.9474 4.26083 16.0001 4.39344 16.0001H11.2884C11.421 16.0001 11.5482 15.9474 11.642 15.8537C11.7358 15.7599 11.7884 15.6327 11.7884 15.5001C11.7884 15.3675 11.7358 15.2403 11.642 15.1465C11.5482 15.0528 11.421 15.0001 11.2884 15.0001H9.44344V12.7101H14.0384C14.4363 12.7101 14.8178 12.5521 15.0991 12.2708C15.3804 11.9895 15.5384 11.6079 15.5384 11.2101V2.1001C15.5384 1.70227 15.3804 1.32074 15.0991 1.03944C14.8178 0.758133 14.4363 0.600098 14.0384 0.600098ZM1.64844 1.6001H14.0384C14.171 1.6001 14.2982 1.65278 14.392 1.74654C14.4858 1.84031 14.5384 1.96749 14.5384 2.1001V9.5001H1.14844V2.1001C1.14844 1.96749 1.20112 1.84031 1.29488 1.74654C1.38865 1.65278 1.51583 1.6001 1.64844 1.6001ZM8.44344 15.0001H7.24344V12.7101H8.44344V15.0001ZM14.0384 11.6951H1.64844C1.51583 11.6951 1.38865 11.6424 1.29488 11.5487C1.20112 11.4549 1.14844 11.3277 1.14844 11.1951V10.5001H14.5384V11.1951C14.5404 11.262 14.529 11.3286 14.5048 11.391C14.4805 11.4535 14.444 11.5104 14.3974 11.5584C14.3508 11.6064 14.295 11.6446 14.2333 11.6707C14.1716 11.6967 14.1054 11.7101 14.0384 11.7101V11.6951Z" fill="#878787"/>
</svg>
