<svg width="153" height="36" viewBox="0 0 153 36" fill="none" xmlns="http://www.w3.org/2000/svg">
<rect width="153" height="36" rx="18" fill="#FF5600"/>
<rect x="8" y="8" width="20" height="20" rx="10" fill="white"/>
<path d="M22.1938 15.0062C22.1357 14.9476 22.0666 14.9011 21.9904 14.8694C21.9142 14.8376 21.8325 14.8213 21.75 14.8213C21.6675 14.8213 21.5858 14.8376 21.5097 14.8694C21.4335 14.9011 21.3644 14.9476 21.3063 15.0062L16.65 19.6687L14.6938 17.7062C14.6335 17.6479 14.5622 17.6021 14.4842 17.5713C14.4062 17.5406 14.3228 17.5255 14.239 17.5269C14.1551 17.5284 14.0724 17.5463 13.9954 17.5798C13.9185 17.6132 13.8489 17.6615 13.7907 17.7218C13.7324 17.7821 13.6866 17.8533 13.6558 17.9314C13.6251 18.0094 13.61 18.0927 13.6114 18.1766C13.6129 18.2604 13.6308 18.3432 13.6643 18.4201C13.6977 18.4971 13.746 18.5666 13.8063 18.6249L16.2063 21.0249C16.2644 21.0835 16.3335 21.13 16.4097 21.1617C16.4858 21.1935 16.5675 21.2098 16.65 21.2098C16.7325 21.2098 16.8142 21.1935 16.8904 21.1617C16.9666 21.13 17.0357 21.0835 17.0938 21.0249L22.1938 15.9249C22.2572 15.8664 22.3078 15.7954 22.3425 15.7163C22.3771 15.6372 22.395 15.5519 22.395 15.4655C22.395 15.3792 22.3771 15.2938 22.3425 15.2148C22.3078 15.1357 22.2572 15.0647 22.1938 15.0062Z" fill="#FF5600"/>
<path d="M36.648 18.016C36.648 15.628 38.016 13.816 40.248 13.816C42.3 13.816 43.416 15.304 43.512 16.852H42.456C42.348 15.82 41.676 14.752 40.248 14.752C38.652 14.752 37.728 16.168 37.728 18.016C37.728 19.864 38.64 21.22 40.236 21.22C41.628 21.22 42.288 20.284 42.456 19.096H43.512C43.308 20.812 42.264 22.144 40.236 22.144C37.836 22.144 36.648 20.416 36.648 18.016ZM44.7443 19.012C44.7443 16.972 45.9803 15.832 47.5283 15.832C49.1123 15.832 50.2883 16.948 50.2883 18.964C50.2883 20.956 49.0643 22.12 47.5163 22.12C45.9323 22.12 44.7443 20.992 44.7443 19.012ZM49.2443 18.988C49.2443 17.524 48.5243 16.708 47.5283 16.708C46.5203 16.708 45.7883 17.56 45.7883 18.988C45.7883 20.44 46.5203 21.244 47.5163 21.244C48.5243 21.244 49.2443 20.416 49.2443 18.988ZM54.6994 15.832C56.1874 15.832 57.2674 16.936 57.2674 18.928C57.2674 20.872 56.1754 22.12 54.5914 22.12C53.4994 22.12 52.9354 21.412 52.8154 20.992H52.7914V24.58H51.7714V15.952H52.7794V17.152H52.8034C52.9714 16.54 53.5834 15.832 54.6994 15.832ZM54.4474 21.268C55.5034 21.268 56.2234 20.368 56.2234 18.964C56.2234 17.512 55.5034 16.684 54.5074 16.684C53.5474 16.684 52.7914 17.488 52.7914 18.928V19.168C52.7914 20.5 53.5234 21.268 54.4474 21.268ZM58.72 13.648H59.788V14.728H58.72V13.648ZM58.744 15.952H59.764V22H58.744V15.952ZM66.5 18.76C66.5 18.892 66.488 19.06 66.476 19.216H62.3C62.324 20.536 62.96 21.244 64.004 21.244C64.976 21.244 65.42 20.632 65.492 20.02H66.44C66.368 21.1 65.528 22.12 63.992 22.12C62.312 22.12 61.256 20.992 61.256 18.988C61.256 16.984 62.444 15.832 63.932 15.832C65.504 15.832 66.5 16.936 66.5 18.76ZM63.932 16.684C63.092 16.684 62.444 17.284 62.324 18.448H65.492C65.42 17.248 64.796 16.684 63.932 16.684ZM72.1421 13.36H73.1621V22H72.1541V20.8H72.1301C71.9861 21.412 71.3741 22.12 70.2461 22.12C68.7821 22.12 67.6661 21.004 67.6661 19.012C67.6661 17.056 68.7701 15.832 70.3661 15.832C71.4341 15.832 71.9741 16.504 72.1181 16.948H72.1421V13.36ZM72.1421 19.024V18.796C72.1421 17.476 71.3981 16.684 70.4741 16.684C69.4181 16.684 68.7101 17.584 68.7101 18.988C68.7101 20.44 69.4301 21.268 70.4141 21.268C71.3741 21.268 72.1421 20.464 72.1421 19.024ZM77.9693 20.44V16.828H77.1173V15.988H77.4773C77.9333 15.988 78.0413 15.856 78.0413 15.244V13.96H78.9893V15.952H80.6213V16.828H78.9893V20.26C78.9893 21.028 79.2293 21.244 79.8173 21.244C80.1293 21.244 80.3813 21.172 80.6213 21.064V21.916C80.3933 22.024 80.0333 22.12 79.5773 22.12C78.4373 22.12 77.9693 21.652 77.9693 20.44ZM81.4122 19.012C81.4122 16.972 82.6482 15.832 84.1962 15.832C85.7802 15.832 86.9562 16.948 86.9562 18.964C86.9562 20.956 85.7322 22.12 84.1842 22.12C82.6002 22.12 81.4122 20.992 81.4122 19.012ZM85.9122 18.988C85.9122 17.524 85.1922 16.708 84.1962 16.708C83.1882 16.708 82.4562 17.56 82.4562 18.988C82.4562 20.44 83.1882 21.244 84.1842 21.244C85.1922 21.244 85.9122 20.416 85.9122 18.988ZM90.8341 19.036C90.8341 16.996 92.0461 15.832 93.5821 15.832C95.1541 15.832 96.0301 16.948 96.0541 18.22H95.0341C94.9981 17.464 94.5661 16.708 93.5821 16.708C92.5981 16.708 91.8781 17.548 91.8781 19.012C91.8781 20.44 92.5861 21.244 93.5581 21.244C94.5061 21.244 94.9021 20.608 95.0341 19.744H96.0541C95.9101 21.124 95.1061 22.12 93.5461 22.12C91.9861 22.12 90.8341 21.016 90.8341 19.036ZM97.5683 13.36H98.5883V22H97.5683V13.36ZM100.38 13.648H101.448V14.728H100.38V13.648ZM100.404 15.952H101.424V22H100.404V15.952ZM106.168 15.832C107.656 15.832 108.736 16.936 108.736 18.928C108.736 20.872 107.644 22.12 106.06 22.12C104.968 22.12 104.404 21.412 104.284 20.992H104.26V24.58H103.24V15.952H104.248V17.152H104.272C104.44 16.54 105.052 15.832 106.168 15.832ZM105.916 21.268C106.972 21.268 107.692 20.368 107.692 18.964C107.692 17.512 106.972 16.684 105.976 16.684C105.016 16.684 104.26 17.488 104.26 18.928V19.168C104.26 20.5 104.992 21.268 105.916 21.268ZM111.185 20.98H111.161L110.993 22H110.213V13.36H111.233V16.12C111.233 16.504 111.233 16.792 111.221 17.152H111.245C111.401 16.528 112.049 15.832 113.141 15.832C114.617 15.832 115.709 16.936 115.709 18.916C115.709 20.884 114.617 22.12 113.033 22.12C112.061 22.12 111.425 21.52 111.185 20.98ZM114.665 18.964C114.665 17.524 113.933 16.684 112.949 16.684C111.989 16.684 111.233 17.5 111.233 18.928V19.18C111.233 20.476 111.965 21.268 112.889 21.268C113.945 21.268 114.665 20.368 114.665 18.964ZM116.873 19.012C116.873 16.972 118.109 15.832 119.657 15.832C121.241 15.832 122.417 16.948 122.417 18.964C122.417 20.956 121.193 22.12 119.645 22.12C118.061 22.12 116.873 20.992 116.873 19.012ZM121.373 18.988C121.373 17.524 120.653 16.708 119.657 16.708C118.649 16.708 117.917 17.56 117.917 18.988C117.917 20.44 118.649 21.244 119.645 21.244C120.653 21.244 121.373 20.416 121.373 18.988ZM123.504 20.512C123.504 18.916 125.112 18.58 127.284 18.532V18.04C127.284 17.14 126.9 16.708 126.024 16.708C125.268 16.708 124.728 17.104 124.728 17.824C124.728 17.896 124.728 17.956 124.74 18.04H123.78C123.768 17.944 123.768 17.896 123.768 17.824C123.768 16.636 124.716 15.832 126.072 15.832C127.536 15.832 128.304 16.612 128.304 18.052V20.26C128.304 21.016 128.4 21.22 128.688 21.22C128.784 21.22 128.88 21.208 128.964 21.16V21.94C128.856 22.012 128.592 22.084 128.352 22.084C127.596 22.084 127.368 21.808 127.32 21.016H127.296C126.972 21.688 126.312 22.12 125.34 22.12C124.188 22.12 123.504 21.532 123.504 20.512ZM127.284 20.056V19.252C125.472 19.276 124.548 19.552 124.548 20.404C124.548 20.992 124.896 21.304 125.64 21.304C126.324 21.304 126.984 20.908 127.284 20.056ZM130.123 15.952H131.131V17.452H131.155C131.407 16.552 132.043 15.868 132.955 15.868C133.183 15.868 133.351 15.88 133.555 15.928V16.96C133.303 16.888 133.099 16.876 132.883 16.876C132.019 16.876 131.143 17.572 131.143 19.192V22H130.123V15.952ZM138.705 13.36H139.725V22H138.717V20.8H138.693C138.549 21.412 137.937 22.12 136.809 22.12C135.345 22.12 134.229 21.004 134.229 19.012C134.229 17.056 135.333 15.832 136.929 15.832C137.997 15.832 138.537 16.504 138.681 16.948H138.705V13.36ZM138.705 19.024V18.796C138.705 17.476 137.961 16.684 137.037 16.684C135.981 16.684 135.273 17.584 135.273 18.988C135.273 20.44 135.993 21.268 136.977 21.268C137.937 21.268 138.705 20.464 138.705 19.024Z" fill="white"/>
</svg>
