<svg width="20" height="20" viewBox="0 0 20 20" fill="none" xmlns="http://www.w3.org/2000/svg">
<path fill-rule="evenodd" clip-rule="evenodd" d="M9.8208 3C8.89775 3 8.07156 3.57256 7.74746 4.43682L6.37718 8.09091H4.90909C3.85473 8.09091 3 8.94561 3 10V14.4545C3 15.5089 3.85473 16.3636 4.90909 16.3636H6.71491L8.3301 16.9021C8.52476 16.9669 8.72861 17 8.93384 17H14.1816C15.1316 17 15.9371 16.3014 16.0715 15.3609L16.9806 8.99728C16.9934 8.90724 16.9998 8.81745 17 8.72848C17.002 7.69123 16.1615 6.81818 15.0907 6.81818H12.1764L12.0275 5.03043C11.9318 3.88276 10.9724 3 9.8208 3ZM6.18182 15.0909V9.36364H4.90909C4.55764 9.36364 4.27273 9.64854 4.27273 10V14.4545C4.27273 14.806 4.55764 15.0909 4.90909 15.0909H6.18182ZM7.45455 15.2686L8.73255 15.6946C8.79746 15.7163 8.86543 15.7273 8.93384 15.7273H14.1816C14.4983 15.7273 14.7667 15.4944 14.8115 15.1809L15.7207 8.81725C15.7251 8.78614 15.7272 8.75565 15.7273 8.72604C15.7279 8.38152 15.4465 8.09091 15.0907 8.09091H11.5909C11.2599 8.09091 10.9842 7.83722 10.9568 7.5074L10.7591 5.13613C10.7185 4.64811 10.3105 4.27273 9.8208 4.27273C9.42829 4.27273 9.07695 4.5162 8.93918 4.88371L7.45455 8.84265V15.2686Z" fill="#929292"/>
</svg>
