<svg width="20" height="20" viewBox="0 0 20 20" fill="none" xmlns="http://www.w3.org/2000/svg">
<path fill-rule="evenodd" clip-rule="evenodd" d="M9.8208 17C8.89775 17 8.07156 16.4275 7.74746 15.5632L6.37718 11.9091H4.90909C3.85473 11.9091 3 11.0544 3 10V5.54545C3 4.4911 3.85473 3.63636 4.90909 3.63636H6.71491L8.3301 3.09797C8.52476 3.03308 8.72861 3 8.93384 3H14.1816C15.1316 3 15.9371 3.69859 16.0715 4.63911L16.9806 11.0027C16.9934 11.0928 16.9998 11.1826 17 11.2715C17.002 12.3088 16.1615 13.1818 15.0907 13.1818H12.1764L12.0275 14.9696C11.9318 16.1172 10.9724 17 9.8208 17ZM6.18182 4.90909V10.6364H4.90909C4.55764 10.6364 4.27273 10.3515 4.27273 10V5.54545C4.27273 5.194 4.55764 4.90909 4.90909 4.90909H6.18182ZM7.45455 4.73139L8.73255 4.30539C8.79746 4.28376 8.86543 4.27273 8.93384 4.27273H14.1816C14.4983 4.27273 14.7667 4.50559 14.8115 4.8191L15.7207 11.1827C15.7251 11.2139 15.7272 11.2443 15.7273 11.2739C15.7279 11.6185 15.4465 11.9091 15.0907 11.9091H11.5909C11.2599 11.9091 10.9842 12.1628 10.9568 12.4926L10.7591 14.8639C10.7185 15.3519 10.3105 15.7273 9.8208 15.7273C9.42829 15.7273 9.07695 15.4838 8.93918 15.1163L7.45455 11.1574V4.73139Z" fill="#929292"/>
</svg>
