<svg width="24" height="24" viewBox="0 0 24 24" fill="none" xmlns="http://www.w3.org/2000/svg">
<path d="M15.9873 5.92545C14.6251 5.92545 13.517 4.81791 13.517 3.45665V0.571289H3.74814C2.62517 0.571289 1.71484 1.48161 1.71484 2.60313V21.3951C1.71484 22.5181 2.62517 23.4284 3.74814 23.4284H16.8379C17.9608 23.4284 18.8712 22.5181 18.8712 21.3951V5.92545H15.9873Z" fill="url(#paint0_linear_2801_1137)"/>
<mask id="mask0_2801_1137" style="mask-type:luminance" maskUnits="userSpaceOnUse" x="1" y="0" width="19" height="24">
<path d="M15.9873 5.92545C14.6251 5.92545 13.517 4.81791 13.517 3.45665V0.571289H3.74814C2.62517 0.571289 1.71484 1.48161 1.71484 2.60313V21.3951C1.71484 22.5181 2.62517 23.4284 3.74814 23.4284H16.8379C17.9608 23.4284 18.8712 22.5181 18.8712 21.3951V5.92545H15.9873Z" fill="black" stroke="url(#paint1_linear_2801_1137)" stroke-width="0.305869"/>
</mask>
<g mask="url(#mask0_2801_1137)">
<path d="M15.9873 5.92545C14.6251 5.92545 13.517 4.81791 13.517 3.45665V0.571289H3.74814C2.62517 0.571289 1.71484 1.48161 1.71484 2.60313V21.3951C1.71484 22.5181 2.62517 23.4284 3.74814 23.4284H16.8379C17.9608 23.4284 18.8712 22.5181 18.8712 21.3951V5.92545H15.9873Z" stroke="url(#paint2_linear_2801_1137)" stroke-width="0.305869"/>
</g>
<path d="M13.5234 3.69624C13.5234 4.90821 14.5072 5.89179 15.7207 5.89179H18.8371L13.5234 0.578125V3.69624Z" fill="url(#paint3_linear_2801_1137)"/>
<rect x="8.42188" y="7.66113" width="4.65264" height="4.65264" rx="2.32632" fill="url(#paint4_linear_2801_1137)"/>
<path d="M14.6263 16.6619C15.291 12.0093 6.6502 11.3078 6.83495 16.6619C6.87191 17.142 7.24117 17.4743 7.7212 17.5113H13.1124C13.9986 17.5482 14.5155 17.3636 14.6263 16.6619Z" fill="url(#paint5_linear_2801_1137)"/>
<path d="M21.2113 18.8367C21.2113 19.3378 21.2113 19.7384 21.2113 19.7384C21.2113 20.7819 20.3641 21.6292 19.3205 21.6292C18.277 21.6292 17.4297 20.7819 17.4297 19.7384V16.882C17.4297 15.8385 18.277 14.9912 19.3205 14.9912C20.0754 14.9912 20.7276 15.4345 21.0306 16.0749" stroke="#2873EA" stroke-width="0.844836" stroke-linecap="round"/>
<path d="M21.7388 23.3778H16.9394C16.4948 23.3778 16.1348 23.0177 16.1348 22.5732V18.6894C16.1348 18.2448 16.4948 17.8848 16.9394 17.8848H21.7388C22.1834 17.8848 22.5434 18.2448 22.5434 18.6894V22.5732C22.5434 23.0177 22.1834 23.3778 21.7388 23.3778Z" fill="#2873EA"/>
<path d="M19.9471 20.4785C19.9471 20.8156 19.674 21.0888 19.3369 21.0888C18.9997 21.0888 18.7266 20.8156 18.7266 20.4785C18.7266 20.1413 18.9997 19.8682 19.3369 19.8682C19.674 19.8682 19.9471 20.1413 19.9471 20.4785Z" fill="white"/>
<path d="M19.3383 21.9274C19.212 21.9274 19.1094 21.8248 19.1094 21.6985V20.4779C19.1094 20.3512 19.212 20.249 19.3383 20.249C19.4646 20.249 19.5672 20.3512 19.5672 20.4779V21.6985C19.5672 21.8248 19.4646 21.9274 19.3383 21.9274Z" fill="white"/>
<defs>
<linearGradient id="paint0_linear_2801_1137" x1="3.01042" y1="1.73141" x2="17.9397" y2="22.4868" gradientUnits="userSpaceOnUse">
<stop stop-color="#F9FCFF"/>
<stop offset="0.5" stop-color="#EAF5FF"/>
<stop offset="1" stop-color="#DAEEFF"/>
</linearGradient>
<linearGradient id="paint1_linear_2801_1137" x1="10.293" y1="0.93032" x2="10.3294" y2="23.561" gradientUnits="userSpaceOnUse">
<stop stop-color="white" stop-opacity="0.2"/>
<stop offset="0.5" stop-color="white" stop-opacity="0.1"/>
<stop offset="1" stop-color="white"/>
</linearGradient>
<linearGradient id="paint2_linear_2801_1137" x1="10.293" y1="0.93032" x2="10.3294" y2="23.561" gradientUnits="userSpaceOnUse">
<stop stop-color="#2695F4"/>
<stop offset="0.5" stop-color="#2A97F5"/>
<stop offset="1" stop-color="#2E9AF6"/>
</linearGradient>
<linearGradient id="paint3_linear_2801_1137" x1="13.5336" y1="5.93738" x2="18.8499" y2="0.566473" gradientUnits="userSpaceOnUse">
<stop stop-color="#4FAEFF" stop-opacity="0.8"/>
<stop offset="0.5" stop-color="#4FAEFF" stop-opacity="0.9"/>
<stop offset="1" stop-color="#4FAEFF"/>
</linearGradient>
<linearGradient id="paint4_linear_2801_1137" x1="8.4308" y1="12.3537" x2="13.0857" y2="7.65093" gradientUnits="userSpaceOnUse">
<stop stop-color="#4FAEFF" stop-opacity="0.8"/>
<stop offset="0.5" stop-color="#4FAEFF" stop-opacity="0.9"/>
<stop offset="1" stop-color="#4FAEFF"/>
</linearGradient>
<linearGradient id="paint5_linear_2801_1137" x1="6.84706" y1="17.5553" x2="10.835" y2="10.7204" gradientUnits="userSpaceOnUse">
<stop stop-color="#008AFF" stop-opacity="0.8"/>
<stop offset="0.5" stop-color="#4FAEFF" stop-opacity="0.9"/>
<stop offset="1" stop-color="#398ED6"/>
</linearGradient>
</defs>
</svg>
