<svg width="92" height="22" viewBox="0 0 92 22" fill="none" xmlns="http://www.w3.org/2000/svg">
<g clip-path="url(#clip0_3087_4863)">
<path d="M0 0H92C92 9.3823 92 14.0735 89.5202 17.3051C88.8818 18.1371 88.1371 18.8818 87.3051 19.5202C84.0734 22 79.3823 22 70 22H0V0Z" fill="#EF613C"/>
<rect x="25.0781" y="3.08398" width="0.153846" height="0.176212" rx="0.0769229" fill="white"/>
<rect x="28.8477" y="1.93848" width="0.153846" height="0.176212" rx="0.0769229" fill="white"/>
<rect x="28.8477" y="4.66895" width="0.153846" height="0.176212" rx="0.0769229" fill="white"/>
<rect x="17.7695" y="3.52441" width="0.153846" height="0.176212" rx="0.0769229" fill="white"/>
<rect x="18.7695" width="0.153846" height="0.176212" rx="0.0769229" fill="white"/>
<rect x="16.1523" y="2.55566" width="0.153846" height="0.176212" rx="0.0769229" fill="white"/>
<rect x="14.6172" y="5.46289" width="0.153846" height="0.176212" rx="0.0769229" fill="white"/>
<rect x="20.3086" y="5.63867" width="0.153846" height="0.176212" rx="0.0769229" fill="white"/>
<rect x="21" y="5.81445" width="0.153846" height="0.176212" rx="0.0769229" fill="white"/>
<rect x="19.3828" y="11.2773" width="0.153846" height="0.176212" rx="0.0769229" fill="white"/>
<rect x="14.4609" y="10.0439" width="0.153846" height="0.176212" rx="0.0769229" fill="white"/>
<rect x="14.3828" y="14.0967" width="0.153846" height="0.176212" rx="0.0769229" fill="white"/>
<rect x="14.5391" y="15.418" width="0.153846" height="0.176212" rx="0.0769229" fill="white"/>
<rect x="6.15625" y="18.415" width="0.153846" height="0.176212" rx="0.0769229" fill="white"/>
<rect x="6.15625" y="16.5635" width="0.153846" height="0.176212" rx="0.0769229" fill="white"/>
<rect x="7.76953" y="4.75781" width="0.153846" height="0.176212" rx="0.0769229" fill="white"/>
<rect x="6.30859" y="2.73145" width="0.153846" height="0.176212" rx="0.0769229" fill="white"/>
<rect x="2" y="2.73145" width="0.153846" height="0.176212" rx="0.0769229" fill="white"/>
<rect x="0.382812" y="6.43262" width="0.153846" height="0.176212" rx="0.0769229" fill="white"/>
<rect y="10.4834" width="0.153846" height="0.176212" rx="0.0769229" fill="white"/>
<rect x="4.92188" y="14.2744" width="0.153846" height="0.176212" rx="0.0769229" fill="white"/>
<rect x="11.7695" y="19.8232" width="0.153846" height="0.176212" rx="0.0769229" fill="white"/>
<rect x="20.3828" y="15.5938" width="0.153846" height="0.176212" rx="0.0769229" fill="white"/>
<rect x="19.5391" y="13.3926" width="0.153846" height="0.176212" rx="0.0769229" fill="white"/>
<rect x="28.2305" y="17.709" width="0.153846" height="0.176212" rx="0.0769229" fill="white"/>
<rect x="72.0781" y="3.08398" width="0.153846" height="0.176212" rx="0.0769229" fill="white"/>
<rect x="75.8477" y="1.93848" width="0.153846" height="0.176212" rx="0.0769229" fill="white"/>
<rect x="75.8477" y="4.66895" width="0.153846" height="0.176212" rx="0.0769229" fill="white"/>
<rect x="64.7695" y="3.52441" width="0.153846" height="0.176212" rx="0.0769229" fill="white"/>
<rect x="65.7695" width="0.153846" height="0.176212" rx="0.0769229" fill="white"/>
<rect x="63.1523" y="2.55566" width="0.153846" height="0.176212" rx="0.0769229" fill="white"/>
<rect x="61.6172" y="5.46289" width="0.153846" height="0.176212" rx="0.0769229" fill="white"/>
<rect x="67.3086" y="5.63867" width="0.153846" height="0.176212" rx="0.0769229" fill="white"/>
<rect x="68" y="5.81445" width="0.153846" height="0.176212" rx="0.0769229" fill="white"/>
<rect x="66.3828" y="11.2773" width="0.153846" height="0.176212" rx="0.0769229" fill="white"/>
<rect x="61.4609" y="10.0439" width="0.153846" height="0.176212" rx="0.0769229" fill="white"/>
<rect x="61.3828" y="14.0967" width="0.153846" height="0.176212" rx="0.0769229" fill="white"/>
<rect x="61.5391" y="15.418" width="0.153846" height="0.176212" rx="0.0769229" fill="white"/>
<rect x="53.1562" y="18.415" width="0.153846" height="0.176212" rx="0.0769229" fill="white"/>
<rect x="53.1562" y="16.5635" width="0.153846" height="0.176212" rx="0.0769229" fill="white"/>
<rect x="54.7695" y="4.75781" width="0.153846" height="0.176212" rx="0.0769229" fill="white"/>
<rect x="53.3086" y="2.73145" width="0.153846" height="0.176212" rx="0.0769229" fill="white"/>
<rect x="49" y="2.73145" width="0.153846" height="0.176212" rx="0.0769229" fill="white"/>
<rect x="47.3828" y="6.43262" width="0.153846" height="0.176212" rx="0.0769229" fill="white"/>
<rect x="47" y="10.4834" width="0.153846" height="0.176212" rx="0.0769229" fill="white"/>
<rect x="51.9219" y="14.2744" width="0.153846" height="0.176212" rx="0.0769229" fill="white"/>
<rect x="58.7695" y="19.8232" width="0.153846" height="0.176212" rx="0.0769229" fill="white"/>
<rect x="67.3828" y="15.5938" width="0.153846" height="0.176212" rx="0.0769229" fill="white"/>
<rect x="66.5391" y="13.3926" width="0.153846" height="0.176212" rx="0.0769229" fill="white"/>
<rect x="75.2305" y="17.709" width="0.153846" height="0.176212" rx="0.0769229" fill="white"/>
<rect x="26.9219" y="16.915" width="0.153846" height="0.176212" rx="0.0769229" transform="rotate(-180 26.9219 16.915)" fill="white"/>
<rect x="23.1523" y="18.0605" width="0.153846" height="0.176212" rx="0.0769229" transform="rotate(-180 23.1523 18.0605)" fill="white"/>
<rect x="23.1523" y="15.3301" width="0.153846" height="0.176212" rx="0.0769229" transform="rotate(-180 23.1523 15.3301)" fill="white"/>
<rect x="34.2305" y="16.4746" width="0.153846" height="0.176212" rx="0.0769229" transform="rotate(-180 34.2305 16.4746)" fill="white"/>
<rect x="33.2305" y="19.999" width="0.153846" height="0.176212" rx="0.0769229" transform="rotate(-180 33.2305 19.999)" fill="white"/>
<rect x="35.8477" y="17.4434" width="0.153846" height="0.176212" rx="0.0769229" transform="rotate(-180 35.8477 17.4434)" fill="white"/>
<rect x="37.3828" y="14.5361" width="0.153846" height="0.176212" rx="0.0769229" transform="rotate(-180 37.3828 14.5361)" fill="white"/>
<rect x="31.6914" y="14.3604" width="0.153846" height="0.176212" rx="0.0769229" transform="rotate(-180 31.6914 14.3604)" fill="white"/>
<rect x="31" y="14.1846" width="0.153846" height="0.176212" rx="0.0769229" transform="rotate(-180 31 14.1846)" fill="white"/>
<rect x="32.6172" y="8.72168" width="0.153846" height="0.176212" rx="0.0769229" transform="rotate(-180 32.6172 8.72168)" fill="white"/>
<rect x="37.5391" y="9.95508" width="0.153846" height="0.176212" rx="0.0769229" transform="rotate(-180 37.5391 9.95508)" fill="white"/>
<rect x="37.6172" y="5.90234" width="0.153846" height="0.176212" rx="0.0769229" transform="rotate(-180 37.6172 5.90234)" fill="white"/>
<rect x="37.4609" y="4.58105" width="0.153846" height="0.176212" rx="0.0769229" transform="rotate(-180 37.4609 4.58105)" fill="white"/>
<rect x="45.8438" y="1.58398" width="0.153846" height="0.176212" rx="0.0769229" transform="rotate(-180 45.8438 1.58398)" fill="white"/>
<rect x="45.8438" y="3.43555" width="0.153846" height="0.176212" rx="0.0769229" transform="rotate(-180 45.8438 3.43555)" fill="white"/>
<rect x="44.2305" y="15.2412" width="0.153846" height="0.176212" rx="0.0769229" transform="rotate(-180 44.2305 15.2412)" fill="white"/>
<rect x="45.6914" y="17.2676" width="0.153846" height="0.176212" rx="0.0769229" transform="rotate(-180 45.6914 17.2676)" fill="white"/>
<rect x="50" y="17.2676" width="0.153846" height="0.176212" rx="0.0769229" transform="rotate(-180 50 17.2676)" fill="white"/>
<rect x="51.6172" y="13.5664" width="0.153846" height="0.176212" rx="0.0769229" transform="rotate(-180 51.6172 13.5664)" fill="white"/>
<rect x="52" y="9.51562" width="0.153846" height="0.176212" rx="0.0769229" transform="rotate(-180 52 9.51562)" fill="white"/>
<rect x="47.0781" y="5.72461" width="0.153846" height="0.176212" rx="0.0769229" transform="rotate(-180 47.0781 5.72461)" fill="white"/>
<rect x="40.2305" y="0.175781" width="0.153846" height="0.176212" rx="0.0769229" transform="rotate(-180 40.2305 0.175781)" fill="white"/>
<rect x="31.6172" y="4.40527" width="0.153846" height="0.176212" rx="0.0769229" transform="rotate(-180 31.6172 4.40527)" fill="white"/>
<rect x="32.4609" y="6.60645" width="0.153846" height="0.176212" rx="0.0769229" transform="rotate(-180 32.4609 6.60645)" fill="white"/>
<rect x="23.7695" y="2.29004" width="0.153846" height="0.176212" rx="0.0769229" transform="rotate(-180 23.7695 2.29004)" fill="white"/>
<g opacity="0.5">
<path opacity="0.3" d="M16.1653 -0.760742H18.333L12.9138 22H10.7461L16.1653 -0.760742Z" fill="white"/>
<path opacity="0.3" d="M21.5872 -0.760742H30.258L24.8387 22H16.168L21.5872 -0.760742Z" fill="white"/>
</g>
<g clip-path="url(#clip1_3087_4863)">
<path d="M21.375 14.75L17.625 11L21.375 7.25" stroke="white" stroke-linecap="round" stroke-linejoin="round"/>
<path d="M17.625 14.75L13.875 11L17.625 7.25" stroke="white" stroke-linecap="round" stroke-linejoin="round"/>
</g>
<path d="M28.144 6.96H29.44L31.36 12.396C31.468 12.708 31.588 13.116 31.696 13.488H31.72C31.828 13.128 31.96 12.708 32.068 12.408L33.964 6.96H35.236L32.38 15H31L28.144 6.96ZM36.2708 6.576H37.5188V7.8H36.2708V6.576ZM36.2948 8.928H37.4948V15H36.2948V8.928ZM44.3251 11.76C44.3251 11.892 44.3131 12.072 44.3011 12.24H40.1851C40.2091 13.464 40.8091 14.1 41.7571 14.1C42.6571 14.1 43.0771 13.536 43.1371 12.96H44.2651C44.1931 14.088 43.3051 15.12 41.7451 15.12C40.0411 15.12 38.9491 14.004 38.9491 11.976C38.9491 9.96 40.1731 8.808 41.6971 8.808C43.2811 8.808 44.3251 9.9 44.3251 11.76ZM41.6971 9.78C40.9171 9.78 40.3291 10.32 40.2091 11.4H43.1371C43.0771 10.284 42.5011 9.78 41.6971 9.78ZM54.05 8.928L52.226 15H50.846L49.766 11.352C49.682 11.052 49.586 10.68 49.514 10.332H49.49C49.418 10.668 49.31 11.052 49.226 11.352L48.194 15H46.814L44.99 8.928H46.19L47.27 12.684C47.366 13.02 47.45 13.356 47.522 13.692H47.558C47.63 13.344 47.714 13.032 47.81 12.696L48.878 8.928H50.186L51.266 12.684C51.374 13.02 51.458 13.356 51.53 13.692H51.554C51.626 13.344 51.71 13.032 51.806 12.696L52.874 8.928H54.05ZM58.1012 6.96H61.0052C62.7092 6.96 63.7892 7.92 63.7892 9.552C63.7892 11.244 62.6732 12.228 60.9212 12.228H59.3372V15H58.1012V6.96ZM60.8972 11.136C61.9052 11.136 62.5052 10.548 62.5052 9.588C62.5052 8.616 61.9172 8.052 60.8972 8.052H59.3372V11.136H60.8972ZM65.3566 6.96H68.1766C70.6846 6.96 72.0286 8.7 72.0286 10.896C72.0286 13.212 70.6606 15 68.1286 15H65.3566V6.96ZM68.0686 13.908C69.9046 13.908 70.7566 12.636 70.7566 10.92C70.7566 9.324 69.9406 8.052 68.0806 8.052H66.5926V13.908H68.0686ZM78.8257 8.052H74.9377V10.596H78.3337V11.676H74.9377V15H73.7017V6.96H78.8257V8.052Z" fill="white"/>
</g>
<defs>
<clipPath id="clip0_3087_4863">
<path d="M0 0H92C92 9.3823 92 14.0735 89.5202 17.3051C88.8818 18.1371 88.1371 18.8818 87.3051 19.5202C84.0734 22 79.3823 22 70 22H0V0Z" fill="white"/>
</clipPath>
<clipPath id="clip1_3087_4863">
<rect width="12" height="12" fill="white" transform="matrix(-1 0 0 -1 24 17)"/>
</clipPath>
</defs>
</svg>
